solid OpenSCAD_Model
  facet normal 0 0 -1
    outer loop
      vertex 0 5 0
      vertex 0 26.65 0
      vertex 0.381 3.087 0
    endloop
  endfacet
  facet normal 0 0 -1
    outer loop
      vertex 0.381 3.087 0
      vertex 0 26.65 0
      vertex 0.381 28.563 0
    endloop
  endfacet
  facet normal 0 0 -1
    outer loop
      vertex 0.381 3.087 0
      vertex 0.381 28.563 0
      vertex 15.2556 71.9411 0
    endloop
  endfacet
  facet normal 0 0 -1
    outer loop
      vertex 0.381 3.087 0
      vertex 15.2556 71.9411 0
      vertex 16.0048 73.75 0
    endloop
  endfacet
  facet normal 0 0 -1
    outer loop
      vertex 0.381 3.087 0
      vertex 16.0048 73.75 0
      vertex 17.1967 75.3033 0
    endloop
  endfacet
  facet normal 0 0 -1
    outer loop
      vertex 17.3317 71.5049 0
      vertex 17.1967 75.3033 0
      vertex 18.75 76.4952 0
    endloop
  endfacet
  facet normal 0 0 -1
    outer loop
      vertex 18.2868 72.8283 0
      vertex 18.75 76.4952 0
      vertex 20.5589 77.2444 0
    endloop
  endfacet
  facet normal 0 0 -1
    outer loop
      vertex 19.75 73.8105 0
      vertex 22.5 77.5 0
      vertex 21.5449 74.3332 0
    endloop
  endfacet
  facet normal 0 0 -1
    outer loop
      vertex 21.5449 74.3332 0
      vertex 24.4411 77.2444 0
      vertex 23.4551 74.3332 0
    endloop
  endfacet
  facet normal 0 0 -1
    outer loop
      vertex 23.4551 74.3332 0
      vertex 26.25 76.4952 0
      vertex 25.25 73.8105 0
    endloop
  endfacet
  facet normal 0 0 -1
    outer loop
      vertex 27.6683 71.5049 0
      vertex 27.8033 75.3033 0
      vertex 28.9952 73.75 0
    endloop
  endfacet
  facet normal 0 0 -1
    outer loop
      vertex 28 70 0
      vertex 28.9952 73.75 0
      vertex 29.7444 71.9411 0
    endloop
  endfacet
  facet normal 0 0 -1
    outer loop
      vertex 36.913 26.269 0
      vertex 29.7444 71.9411 0
      vertex 44.619 28.563 0
    endloop
  endfacet
  facet normal 0 0 -1
    outer loop
      vertex 41.119 8.087 0
      vertex 45 26.65 0
      vertex 45 5 0
    endloop
  endfacet
  facet normal 0 0 -1
    outer loop
      vertex 0.381 3.087 0
      vertex 45 5 0
      vertex 44.619 3.087 0
    endloop
  endfacet
  facet normal 0 0 -1
    outer loop
      vertex 0.381 3.087 0
      vertex 44.619 3.087 0
      vertex 43.536 1.464 0
    endloop
  endfacet
  facet normal 0 0 -1
    outer loop
      vertex 0.381 3.087 0
      vertex 43.536 1.464 0
      vertex 41.913 0.381 0
    endloop
  endfacet
  facet normal 0 0 -1
    outer loop
      vertex 0.381 3.087 0
      vertex 41.913 0.381 0
      vertex 40 0 0
    endloop
  endfacet
  facet normal 0 0 -1
    outer loop
      vertex 0.381 3.087 0
      vertex 40 0 0
      vertex 5 0 0
    endloop
  endfacet
  facet normal 0 0 -1
    outer loop
      vertex 0.381 3.087 0
      vertex 5 0 0
      vertex 3.087 0.381 0
    endloop
  endfacet
  facet normal 0 0 -1
    outer loop
      vertex 0.381 3.087 0
      vertex 3.087 0.381 0
      vertex 1.464 1.464 0
    endloop
  endfacet
  facet normal 0 0 -1
    outer loop
      vertex 3.5 10 0
      vertex 0.381 3.087 0
      vertex 3.5 10.825 0
    endloop
  endfacet
  facet normal 0 0 -1
    outer loop
      vertex 6.587 5.381 0
      vertex 0.381 3.087 0
      vertex 4.964 6.464 0
    endloop
  endfacet
  facet normal 0 0 -1
    outer loop
      vertex 0.381 3.087 0
      vertex 3.5 10 0
      vertex 3.881 8.087 0
    endloop
  endfacet
  facet normal 0 0 -1
    outer loop
      vertex 0.381 3.087 0
      vertex 3.881 8.087 0
      vertex 4.964 6.464 0
    endloop
  endfacet
  facet normal 0 0 -1
    outer loop
      vertex 38.413 5.381 0
      vertex 45 5 0
      vertex 36.5 5 0
    endloop
  endfacet
  facet normal 0 0 -1
    outer loop
      vertex 0.381 3.087 0
      vertex 6.587 5.381 0
      vertex 8.5 5 0
    endloop
  endfacet
  facet normal 0 0 -1
    outer loop
      vertex 0.381 3.087 0
      vertex 8.5 5 0
      vertex 36.5 5 0
    endloop
  endfacet
  facet normal 0 0 -1
    outer loop
      vertex 0.381 3.087 0
      vertex 36.5 5 0
      vertex 45 5 0
    endloop
  endfacet
  facet normal 0 0 -1
    outer loop
      vertex 38.536 25.186 0
      vertex 44.619 28.563 0
      vertex 45 26.65 0
    endloop
  endfacet
  facet normal 0 0 -1
    outer loop
      vertex 40 21.65 0
      vertex 45 26.65 0
      vertex 41.5 10.825 0
    endloop
  endfacet
  facet normal 0 0 -1
    outer loop
      vertex 38.536 25.186 0
      vertex 45 26.65 0
      vertex 39.619 23.563 0
    endloop
  endfacet
  facet normal 0 0 -1
    outer loop
      vertex 38.413 5.381 0
      vertex 40.036 6.464 0
      vertex 45 5 0
    endloop
  endfacet
  facet normal 0 0 -1
    outer loop
      vertex 41.5 10 0
      vertex 45 26.65 0
      vertex 41.119 8.087 0
    endloop
  endfacet
  facet normal 0 0 -1
    outer loop
      vertex 40.036 6.464 0
      vertex 41.119 8.087 0
      vertex 45 5 0
    endloop
  endfacet
  facet normal 0 0 -1
    outer loop
      vertex 41.5 10.825 0
      vertex 45 26.65 0
      vertex 41.5 10 0
    endloop
  endfacet
  facet normal 0 0 -1
    outer loop
      vertex 39.619 23.563 0
      vertex 45 26.65 0
      vertex 40 21.65 0
    endloop
  endfacet
  facet normal 0 0 -1
    outer loop
      vertex 36.913 26.269 0
      vertex 44.619 28.563 0
      vertex 38.536 25.186 0
    endloop
  endfacet
  facet normal 0 0 -1
    outer loop
      vertex 35 26.65 0
      vertex 29.7444 71.9411 0
      vertex 36.913 26.269 0
    endloop
  endfacet
  facet normal 0 0 -1
    outer loop
      vertex 10 26.65 0
      vertex 29.7444 71.9411 0
      vertex 35 26.65 0
    endloop
  endfacet
  facet normal 0 0 -1
    outer loop
      vertex 21.5449 65.6668 0
      vertex 6.464 25.186 0
      vertex 19.75 66.1895 0
    endloop
  endfacet
  facet normal 0 0 -1
    outer loop
      vertex 0.381 3.087 0
      vertex 17.1967 75.3033 0
      vertex 5.381 23.563 0
    endloop
  endfacet
  facet normal 0 0 -1
    outer loop
      vertex 17.3317 68.4951 0
      vertex 5.381 23.563 0
      vertex 17 70 0
    endloop
  endfacet
  facet normal 0 0 -1
    outer loop
      vertex 0.381 3.087 0
      vertex 5.381 23.563 0
      vertex 5 21.65 0
    endloop
  endfacet
  facet normal 0 0 -1
    outer loop
      vertex 5.381 23.563 0
      vertex 17.1967 75.3033 0
      vertex 17 70 0
    endloop
  endfacet
  facet normal 0 0 -1
    outer loop
      vertex 18.2868 67.1717 0
      vertex 5.381 23.563 0
      vertex 17.3317 68.4951 0
    endloop
  endfacet
  facet normal 0 0 -1
    outer loop
      vertex 18.2868 72.8283 0
      vertex 20.5589 77.2444 0
      vertex 19.75 73.8105 0
    endloop
  endfacet
  facet normal 0 0 -1
    outer loop
      vertex 21.5449 74.3332 0
      vertex 22.5 77.5 0
      vertex 24.4411 77.2444 0
    endloop
  endfacet
  facet normal 0 0 -1
    outer loop
      vertex 23.4551 65.6668 0
      vertex 8.087 26.269 0
      vertex 21.5449 65.6668 0
    endloop
  endfacet
  facet normal 0 0 -1
    outer loop
      vertex 28 70 0
      vertex 29.7444 71.9411 0
      vertex 27.6683 68.4951 0
    endloop
  endfacet
  facet normal 0 0 -1
    outer loop
      vertex 10 26.65 0
      vertex 26.7132 67.1717 0
      vertex 27.6683 68.4951 0
    endloop
  endfacet
  facet normal 0 0 -1
    outer loop
      vertex 10 26.65 0
      vertex 27.6683 68.4951 0
      vertex 29.7444 71.9411 0
    endloop
  endfacet
  facet normal 0 0 -1
    outer loop
      vertex 27.6683 71.5049 0
      vertex 28.9952 73.75 0
      vertex 28 70 0
    endloop
  endfacet
  facet normal 0 0 -1
    outer loop
      vertex 25.25 73.8105 0
      vertex 27.8033 75.3033 0
      vertex 26.7132 72.8283 0
    endloop
  endfacet
  facet normal 0 0 -1
    outer loop
      vertex 26.7132 72.8283 0
      vertex 27.8033 75.3033 0
      vertex 27.6683 71.5049 0
    endloop
  endfacet
  facet normal 0 0 -1
    outer loop
      vertex 26.7132 67.1717 0
      vertex 10 26.65 0
      vertex 8.087 26.269 0
    endloop
  endfacet
  facet normal 0 0 -1
    outer loop
      vertex 25.25 73.8105 0
      vertex 26.25 76.4952 0
      vertex 27.8033 75.3033 0
    endloop
  endfacet
  facet normal 0 0 -1
    outer loop
      vertex 19.75 66.1895 0
      vertex 6.464 25.186 0
      vertex 18.2868 67.1717 0
    endloop
  endfacet
  facet normal 0 0 -1
    outer loop
      vertex 17.3317 71.5049 0
      vertex 18.75 76.4952 0
      vertex 18.2868 72.8283 0
    endloop
  endfacet
  facet normal 0 0 -1
    outer loop
      vertex 17 70 0
      vertex 17.1967 75.3033 0
      vertex 17.3317 71.5049 0
    endloop
  endfacet
  facet normal 0 0 -1
    outer loop
      vertex 3.5 10.825 0
      vertex 0.381 3.087 0
      vertex 5 21.65 0
    endloop
  endfacet
  facet normal 0 0 -1
    outer loop
      vertex 19.75 73.8105 0
      vertex 20.5589 77.2444 0
      vertex 22.5 77.5 0
    endloop
  endfacet
  facet normal 0 0 -1
    outer loop
      vertex 21.5449 65.6668 0
      vertex 8.087 26.269 0
      vertex 6.464 25.186 0
    endloop
  endfacet
  facet normal 0 0 -1
    outer loop
      vertex 23.4551 74.3332 0
      vertex 24.4411 77.2444 0
      vertex 26.25 76.4952 0
    endloop
  endfacet
  facet normal 0 0 -1
    outer loop
      vertex 25.25 66.1895 0
      vertex 8.087 26.269 0
      vertex 23.4551 65.6668 0
    endloop
  endfacet
  facet normal 0 0 -1
    outer loop
      vertex 26.7132 67.1717 0
      vertex 8.087 26.269 0
      vertex 25.25 66.1895 0
    endloop
  endfacet
  facet normal 0 0 -1
    outer loop
      vertex 18.2868 67.1717 0
      vertex 6.464 25.186 0
      vertex 5.381 23.563 0
    endloop
  endfacet
  facet normal -1 0 0
    outer loop
      vertex 0 5 0
      vertex 0 5 7
      vertex 0 26.65 0
    endloop
  endfacet
  facet normal -1 0 0
    outer loop
      vertex 0 26.65 0
      vertex 0 5 7
      vertex 0 26.65 7
    endloop
  endfacet
  facet normal -0.980738 -0.195327 0
    outer loop
      vertex 0 5 0
      vertex 0.381 3.087 0
      vertex 0 5 7
    endloop
  endfacet
  facet normal -0.980738 -0.195327 0
    outer loop
      vertex 0 5 7
      vertex 0.381 3.087 0
      vertex 0.381 3.087 7
    endloop
  endfacet
  facet normal -0.831814 -0.555055 0
    outer loop
      vertex 0.381 3.087 0
      vertex 1.464 1.464 0
      vertex 0.381 3.087 7
    endloop
  endfacet
  facet normal -0.831814 -0.555055 0
    outer loop
      vertex 0.381 3.087 7
      vertex 1.464 1.464 0
      vertex 1.464 1.464 7
    endloop
  endfacet
  facet normal -0.555055 -0.831814 0
    outer loop
      vertex 1.464 1.464 7
      vertex 1.464 1.464 0
      vertex 3.087 0.381 0
    endloop
  endfacet
  facet normal -0.555055 -0.831814 0
    outer loop
      vertex 3.087 0.381 7
      vertex 1.464 1.464 7
      vertex 3.087 0.381 0
    endloop
  endfacet
  facet normal -0.195327 -0.980738 0
    outer loop
      vertex 3.087 0.381 7
      vertex 3.087 0.381 0
      vertex 5 0 0
    endloop
  endfacet
  facet normal -0.195327 -0.980738 0
    outer loop
      vertex 5 0 7
      vertex 3.087 0.381 7
      vertex 5 0 0
    endloop
  endfacet
  facet normal 0 -1 0
    outer loop
      vertex 5 0 7
      vertex 5 0 0
      vertex 40 0 0
    endloop
  endfacet
  facet normal 0 -1 0
    outer loop
      vertex 40 0 7
      vertex 5 0 7
      vertex 40 0 0
    endloop
  endfacet
  facet normal 0.195327 -0.980738 0
    outer loop
      vertex 40 0 7
      vertex 40 0 0
      vertex 41.913 0.381 0
    endloop
  endfacet
  facet normal 0.195327 -0.980738 0
    outer loop
      vertex 41.913 0.381 7
      vertex 40 0 7
      vertex 41.913 0.381 0
    endloop
  endfacet
  facet normal 0.555055 -0.831814 0
    outer loop
      vertex 41.913 0.381 7
      vertex 41.913 0.381 0
      vertex 43.536 1.464 0
    endloop
  endfacet
  facet normal 0.555055 -0.831814 0
    outer loop
      vertex 43.536 1.464 7
      vertex 41.913 0.381 7
      vertex 43.536 1.464 0
    endloop
  endfacet
  facet normal 0.831814 -0.555055 0
    outer loop
      vertex 43.536 1.464 7
      vertex 43.536 1.464 0
      vertex 44.619 3.087 0
    endloop
  endfacet
  facet normal 0.831814 -0.555055 0
    outer loop
      vertex 44.619 3.087 7
      vertex 43.536 1.464 7
      vertex 44.619 3.087 0
    endloop
  endfacet
  facet normal 0.980738 -0.195327 0
    outer loop
      vertex 44.619 3.087 7
      vertex 44.619 3.087 0
      vertex 45 5 0
    endloop
  endfacet
  facet normal 0.980738 -0.195327 0
    outer loop
      vertex 45 5 7
      vertex 44.619 3.087 7
      vertex 45 5 0
    endloop
  endfacet
  facet normal 1 0 0
    outer loop
      vertex 45 5 7
      vertex 45 5 0
      vertex 45 26.65 0
    endloop
  endfacet
  facet normal 1 0 0
    outer loop
      vertex 45 26.65 7
      vertex 45 5 7
      vertex 45 26.65 0
    endloop
  endfacet
  facet normal 0.980738 0.195327 0
    outer loop
      vertex 45 26.65 0
      vertex 44.619 28.563 0
      vertex 44.619 28.563 7
    endloop
  endfacet
  facet normal 0.980738 0.195327 0
    outer loop
      vertex 45 26.65 7
      vertex 45 26.65 0
      vertex 44.619 28.563 7
    endloop
  endfacet
  facet normal 0.945932 0.324364 0
    outer loop
      vertex 44.619 28.563 0
      vertex 29.7444 71.9411 0
      vertex 29.7444 71.9411 7
    endloop
  endfacet
  facet normal 0.945932 0.324364 0
    outer loop
      vertex 44.619 28.563 7
      vertex 44.619 28.563 0
      vertex 29.7444 71.9411 7
    endloop
  endfacet
  facet normal 0.92388 0.382683 0
    outer loop
      vertex 29.7444 71.9411 0
      vertex 28.9952 73.75 0
      vertex 28.9952 73.75 7
    endloop
  endfacet
  facet normal 0.92388 0.382683 0
    outer loop
      vertex 29.7444 71.9411 7
      vertex 29.7444 71.9411 0
      vertex 28.9952 73.75 7
    endloop
  endfacet
  facet normal 0.793353 0.608762 0
    outer loop
      vertex 28.9952 73.75 0
      vertex 27.8033 75.3033 0
      vertex 27.8033 75.3033 7
    endloop
  endfacet
  facet normal 0.793353 0.608762 0
    outer loop
      vertex 28.9952 73.75 7
      vertex 28.9952 73.75 0
      vertex 27.8033 75.3033 7
    endloop
  endfacet
  facet normal 0.608762 0.793353 0
    outer loop
      vertex 26.25 76.4952 0
      vertex 26.25 76.4952 7
      vertex 27.8033 75.3033 0
    endloop
  endfacet
  facet normal 0.608762 0.793353 0
    outer loop
      vertex 27.8033 75.3033 0
      vertex 26.25 76.4952 7
      vertex 27.8033 75.3033 7
    endloop
  endfacet
  facet normal 0.382683 0.92388 0
    outer loop
      vertex 24.4411 77.2444 0
      vertex 24.4411 77.2444 7
      vertex 26.25 76.4952 0
    endloop
  endfacet
  facet normal 0.382683 0.92388 0
    outer loop
      vertex 26.25 76.4952 0
      vertex 24.4411 77.2444 7
      vertex 26.25 76.4952 7
    endloop
  endfacet
  facet normal 0.130526 0.991445 0
    outer loop
      vertex 22.5 77.5 0
      vertex 22.5 77.5 7
      vertex 24.4411 77.2444 0
    endloop
  endfacet
  facet normal 0.130526 0.991445 0
    outer loop
      vertex 24.4411 77.2444 0
      vertex 22.5 77.5 7
      vertex 24.4411 77.2444 7
    endloop
  endfacet
  facet normal -0.130526 0.991445 0
    outer loop
      vertex 20.5589 77.2444 0
      vertex 20.5589 77.2444 7
      vertex 22.5 77.5 0
    endloop
  endfacet
  facet normal -0.130526 0.991445 0
    outer loop
      vertex 22.5 77.5 0
      vertex 20.5589 77.2444 7
      vertex 22.5 77.5 7
    endloop
  endfacet
  facet normal -0.382683 0.92388 0
    outer loop
      vertex 18.75 76.4952 0
      vertex 18.75 76.4952 7
      vertex 20.5589 77.2444 0
    endloop
  endfacet
  facet normal -0.382683 0.92388 0
    outer loop
      vertex 20.5589 77.2444 0
      vertex 18.75 76.4952 7
      vertex 20.5589 77.2444 7
    endloop
  endfacet
  facet normal -0.608762 0.793353 0
    outer loop
      vertex 17.1967 75.3033 0
      vertex 17.1967 75.3033 7
      vertex 18.75 76.4952 0
    endloop
  endfacet
  facet normal -0.608762 0.793353 0
    outer loop
      vertex 18.75 76.4952 0
      vertex 17.1967 75.3033 7
      vertex 18.75 76.4952 7
    endloop
  endfacet
  facet normal -0.793353 0.608762 0
    outer loop
      vertex 16.0048 73.75 0
      vertex 16.0048 73.75 7
      vertex 17.1967 75.3033 0
    endloop
  endfacet
  facet normal -0.793353 0.608762 0
    outer loop
      vertex 17.1967 75.3033 0
      vertex 16.0048 73.75 7
      vertex 17.1967 75.3033 7
    endloop
  endfacet
  facet normal -0.92388 0.382683 0
    outer loop
      vertex 15.2556 71.9411 0
      vertex 15.2556 71.9411 7
      vertex 16.0048 73.75 0
    endloop
  endfacet
  facet normal -0.92388 0.382683 0
    outer loop
      vertex 16.0048 73.75 0
      vertex 15.2556 71.9411 7
      vertex 16.0048 73.75 7
    endloop
  endfacet
  facet normal -0.945932 0.324364 0
    outer loop
      vertex 0.381 28.563 0
      vertex 0.381 28.563 7
      vertex 15.2556 71.9411 0
    endloop
  endfacet
  facet normal -0.945932 0.324364 0
    outer loop
      vertex 15.2556 71.9411 0
      vertex 0.381 28.563 7
      vertex 15.2556 71.9411 7
    endloop
  endfacet
  facet normal -0.980738 0.195327 0
    outer loop
      vertex 0 26.65 0
      vertex 0 26.65 7
      vertex 0.381 28.563 0
    endloop
  endfacet
  facet normal -0.980738 0.195327 0
    outer loop
      vertex 0.381 28.563 0
      vertex 0 26.65 7
      vertex 0.381 28.563 7
    endloop
  endfacet
  facet normal 0.990536 -0.137257 0
    outer loop
      vertex 5 21.65 0
      vertex 5 21.65 7
      vertex 3.5 10.825 7
    endloop
  endfacet
  facet normal 0.990536 -0.137257 0
    outer loop
      vertex 3.5 10.825 0
      vertex 5 21.65 0
      vertex 3.5 10.825 7
    endloop
  endfacet
  facet normal 1 0 0
    outer loop
      vertex 3.5 10.825 0
      vertex 3.5 10.825 7
      vertex 3.5 10 7
    endloop
  endfacet
  facet normal 1 0 0
    outer loop
      vertex 3.5 10 0
      vertex 3.5 10.825 0
      vertex 3.5 10 7
    endloop
  endfacet
  facet normal 0.980738 -0.195327 0
    outer loop
      vertex 5.381 23.563 0
      vertex 5.381 23.563 7
      vertex 5 21.65 7
    endloop
  endfacet
  facet normal 0.980738 -0.195327 0
    outer loop
      vertex 5 21.65 0
      vertex 5.381 23.563 0
      vertex 5 21.65 7
    endloop
  endfacet
  facet normal 0.831814 -0.555055 0
    outer loop
      vertex 6.464 25.186 0
      vertex 6.464 25.186 7
      vertex 5.381 23.563 7
    endloop
  endfacet
  facet normal 0.831814 -0.555055 0
    outer loop
      vertex 5.381 23.563 0
      vertex 6.464 25.186 0
      vertex 5.381 23.563 7
    endloop
  endfacet
  facet normal 0.555055 -0.831814 0
    outer loop
      vertex 8.087 26.269 0
      vertex 8.087 26.269 7
      vertex 6.464 25.186 7
    endloop
  endfacet
  facet normal 0.555055 -0.831814 0
    outer loop
      vertex 6.464 25.186 0
      vertex 8.087 26.269 0
      vertex 6.464 25.186 7
    endloop
  endfacet
  facet normal 0.195327 -0.980738 0
    outer loop
      vertex 10 26.65 0
      vertex 10 26.65 7
      vertex 8.087 26.269 7
    endloop
  endfacet
  facet normal 0.195327 -0.980738 0
    outer loop
      vertex 8.087 26.269 0
      vertex 10 26.65 0
      vertex 8.087 26.269 7
    endloop
  endfacet
  facet normal 0 -1 0
    outer loop
      vertex 32.0731 26.65 4.75
      vertex 35 26.65 7
      vertex 10 26.65 7
    endloop
  endfacet
  facet normal 0 -1 0
    outer loop
      vertex 10 26.65 0
      vertex 12.9269 26.65 4.75
      vertex 10 26.65 7
    endloop
  endfacet
  facet normal 0 -1 0
    outer loop
      vertex 35 26.65 0
      vertex 35 26.65 7
      vertex 32.0731 26.65 4.75
    endloop
  endfacet
  facet normal 0 -1 0
    outer loop
      vertex 32.0731 26.65 2.25
      vertex 12.9269 26.65 2.25
      vertex 35 26.65 0
    endloop
  endfacet
  facet normal 0 -1 0
    outer loop
      vertex 35 26.65 0
      vertex 32.0731 26.65 4.75
      vertex 32.0731 26.65 2.25
    endloop
  endfacet
  facet normal 0 -1 0
    outer loop
      vertex 10 26.65 0
      vertex 12.9269 26.65 2.25
      vertex 12.9269 26.65 4.75
    endloop
  endfacet
  facet normal 0 -1 0
    outer loop
      vertex 10 26.65 0
      vertex 35 26.65 0
      vertex 12.9269 26.65 2.25
    endloop
  endfacet
  facet normal 0 -1 0
    outer loop
      vertex 12.9269 26.65 4.75
      vertex 32.0731 26.65 4.75
      vertex 10 26.65 7
    endloop
  endfacet
  facet normal -0.195327 -0.980738 0
    outer loop
      vertex 36.913 26.269 0
      vertex 36.913 26.269 7
      vertex 35 26.65 7
    endloop
  endfacet
  facet normal -0.195327 -0.980738 0
    outer loop
      vertex 35 26.65 0
      vertex 36.913 26.269 0
      vertex 35 26.65 7
    endloop
  endfacet
  facet normal -0.555055 -0.831814 0
    outer loop
      vertex 38.536 25.186 0
      vertex 38.536 25.186 7
      vertex 36.913 26.269 7
    endloop
  endfacet
  facet normal -0.555055 -0.831814 0
    outer loop
      vertex 36.913 26.269 0
      vertex 38.536 25.186 0
      vertex 36.913 26.269 7
    endloop
  endfacet
  facet normal -0.831814 -0.555055 0
    outer loop
      vertex 39.619 23.563 7
      vertex 38.536 25.186 7
      vertex 39.619 23.563 0
    endloop
  endfacet
  facet normal -0.831814 -0.555055 0
    outer loop
      vertex 39.619 23.563 0
      vertex 38.536 25.186 7
      vertex 38.536 25.186 0
    endloop
  endfacet
  facet normal -0.980738 -0.195327 0
    outer loop
      vertex 40 21.65 7
      vertex 39.619 23.563 7
      vertex 40 21.65 0
    endloop
  endfacet
  facet normal -0.980738 -0.195327 0
    outer loop
      vertex 40 21.65 0
      vertex 39.619 23.563 7
      vertex 39.619 23.563 0
    endloop
  endfacet
  facet normal -0.990536 -0.137257 0
    outer loop
      vertex 41.5 10.825 7
      vertex 40 21.65 7
      vertex 41.5 10.825 0
    endloop
  endfacet
  facet normal -0.990536 -0.137257 0
    outer loop
      vertex 41.5 10.825 0
      vertex 40 21.65 7
      vertex 40 21.65 0
    endloop
  endfacet
  facet normal -1 0 0
    outer loop
      vertex 41.5 10.825 7
      vertex 41.5 10.825 0
      vertex 41.5 10 7
    endloop
  endfacet
  facet normal -1 0 0
    outer loop
      vertex 41.5 10 7
      vertex 41.5 10.825 0
      vertex 41.5 10 0
    endloop
  endfacet
  facet normal -0.980738 0.195327 0
    outer loop
      vertex 41.5 10 7
      vertex 41.5 10 0
      vertex 41.119 8.087 7
    endloop
  endfacet
  facet normal -0.980738 0.195327 0
    outer loop
      vertex 41.119 8.087 7
      vertex 41.5 10 0
      vertex 41.119 8.087 0
    endloop
  endfacet
  facet normal -0.831814 0.555055 0
    outer loop
      vertex 41.119 8.087 7
      vertex 41.119 8.087 0
      vertex 40.036 6.464 7
    endloop
  endfacet
  facet normal -0.831814 0.555055 0
    outer loop
      vertex 40.036 6.464 7
      vertex 41.119 8.087 0
      vertex 40.036 6.464 0
    endloop
  endfacet
  facet normal -0.555055 0.831814 0
    outer loop
      vertex 40.036 6.464 7
      vertex 40.036 6.464 0
      vertex 38.413 5.381 7
    endloop
  endfacet
  facet normal -0.555055 0.831814 0
    outer loop
      vertex 38.413 5.381 7
      vertex 40.036 6.464 0
      vertex 38.413 5.381 0
    endloop
  endfacet
  facet normal -0.195327 0.980738 0
    outer loop
      vertex 38.413 5.381 7
      vertex 38.413 5.381 0
      vertex 36.5 5 7
    endloop
  endfacet
  facet normal -0.195327 0.980738 0
    outer loop
      vertex 36.5 5 7
      vertex 38.413 5.381 0
      vertex 36.5 5 0
    endloop
  endfacet
  facet normal 0 1 0
    outer loop
      vertex 36.5 5 7
      vertex 36.5 5 0
      vertex 8.5 5 7
    endloop
  endfacet
  facet normal 0 1 0
    outer loop
      vertex 8.5 5 7
      vertex 36.5 5 0
      vertex 8.5 5 0
    endloop
  endfacet
  facet normal 0.195327 0.980738 0
    outer loop
      vertex 8.5 5 7
      vertex 8.5 5 0
      vertex 6.587 5.381 7
    endloop
  endfacet
  facet normal 0.195327 0.980738 0
    outer loop
      vertex 6.587 5.381 7
      vertex 8.5 5 0
      vertex 6.587 5.381 0
    endloop
  endfacet
  facet normal 0.555055 0.831814 0
    outer loop
      vertex 6.587 5.381 7
      vertex 6.587 5.381 0
      vertex 4.964 6.464 7
    endloop
  endfacet
  facet normal 0.555055 0.831814 0
    outer loop
      vertex 4.964 6.464 7
      vertex 6.587 5.381 0
      vertex 4.964 6.464 0
    endloop
  endfacet
  facet normal 0.831814 0.555055 0
    outer loop
      vertex 3.881 8.087 7
      vertex 4.964 6.464 7
      vertex 4.964 6.464 0
    endloop
  endfacet
  facet normal 0.831814 0.555055 0
    outer loop
      vertex 3.881 8.087 0
      vertex 3.881 8.087 7
      vertex 4.964 6.464 0
    endloop
  endfacet
  facet normal 0.980738 0.195327 0
    outer loop
      vertex 3.5 10 7
      vertex 3.881 8.087 7
      vertex 3.881 8.087 0
    endloop
  endfacet
  facet normal 0.980738 0.195327 0
    outer loop
      vertex 3.5 10 0
      vertex 3.5 10 7
      vertex 3.881 8.087 0
    endloop
  endfacet
  facet normal 0.976561 -0.215243 0
    outer loop
      vertex 17.3317 71.5049 0
      vertex 17.3317 71.5049 7
      vertex 17 70 7
    endloop
  endfacet
  facet normal 0.976561 -0.215243 0
    outer loop
      vertex 17 70 0
      vertex 17.3317 71.5049 0
      vertex 17 70 7
    endloop
  endfacet
  facet normal 0.976561 0.215243 0
    outer loop
      vertex 17 70 7
      vertex 17.3317 68.4951 7
      vertex 17.3317 68.4951 0
    endloop
  endfacet
  facet normal 0.976561 0.215243 0
    outer loop
      vertex 17 70 0
      vertex 17 70 7
      vertex 17.3317 68.4951 0
    endloop
  endfacet
  facet normal 0.810885 -0.585206 0
    outer loop
      vertex 18.2868 72.8283 0
      vertex 18.2868 72.8283 7
      vertex 17.3317 71.5049 7
    endloop
  endfacet
  facet normal 0.810885 -0.585206 0
    outer loop
      vertex 17.3317 71.5049 0
      vertex 18.2868 72.8283 0
      vertex 17.3317 71.5049 7
    endloop
  endfacet
  facet normal 0.557349 -0.830278 0
    outer loop
      vertex 19.75 73.8105 0
      vertex 19.75 73.8105 7
      vertex 18.2868 72.8283 7
    endloop
  endfacet
  facet normal 0.557349 -0.830278 0
    outer loop
      vertex 18.2868 72.8283 0
      vertex 19.75 73.8105 0
      vertex 18.2868 72.8283 7
    endloop
  endfacet
  facet normal 0.279566 -0.960126 0
    outer loop
      vertex 21.5449 74.3332 0
      vertex 21.5449 74.3332 7
      vertex 19.75 73.8105 7
    endloop
  endfacet
  facet normal 0.279566 -0.960126 0
    outer loop
      vertex 19.75 73.8105 0
      vertex 21.5449 74.3332 0
      vertex 19.75 73.8105 7
    endloop
  endfacet
  facet normal 0 -1 0
    outer loop
      vertex 23.4551 74.3332 0
      vertex 23.4551 74.3332 7
      vertex 21.5449 74.3332 7
    endloop
  endfacet
  facet normal 0 -1 0
    outer loop
      vertex 21.5449 74.3332 0
      vertex 23.4551 74.3332 0
      vertex 21.5449 74.3332 7
    endloop
  endfacet
  facet normal -0.279566 -0.960126 0
    outer loop
      vertex 25.25 73.8105 0
      vertex 25.25 73.8105 7
      vertex 23.4551 74.3332 7
    endloop
  endfacet
  facet normal -0.279566 -0.960126 0
    outer loop
      vertex 23.4551 74.3332 0
      vertex 25.25 73.8105 0
      vertex 23.4551 74.3332 7
    endloop
  endfacet
  facet normal -0.557349 -0.830278 0
    outer loop
      vertex 26.7132 72.8283 0
      vertex 26.7132 72.8283 7
      vertex 25.25 73.8105 7
    endloop
  endfacet
  facet normal -0.557349 -0.830278 0
    outer loop
      vertex 25.25 73.8105 0
      vertex 26.7132 72.8283 0
      vertex 25.25 73.8105 7
    endloop
  endfacet
  facet normal -0.810885 -0.585206 0
    outer loop
      vertex 27.6683 71.5049 7
      vertex 26.7132 72.8283 7
      vertex 27.6683 71.5049 0
    endloop
  endfacet
  facet normal -0.810885 -0.585206 0
    outer loop
      vertex 27.6683 71.5049 0
      vertex 26.7132 72.8283 7
      vertex 26.7132 72.8283 0
    endloop
  endfacet
  facet normal -0.976561 -0.215243 0
    outer loop
      vertex 28 70 7
      vertex 27.6683 71.5049 7
      vertex 28 70 0
    endloop
  endfacet
  facet normal -0.976561 -0.215243 0
    outer loop
      vertex 28 70 0
      vertex 27.6683 71.5049 7
      vertex 27.6683 71.5049 0
    endloop
  endfacet
  facet normal -0.976561 0.215243 0
    outer loop
      vertex 28 70 7
      vertex 28 70 0
      vertex 27.6683 68.4951 7
    endloop
  endfacet
  facet normal -0.976561 0.215243 0
    outer loop
      vertex 27.6683 68.4951 7
      vertex 28 70 0
      vertex 27.6683 68.4951 0
    endloop
  endfacet
  facet normal -0.810885 0.585206 0
    outer loop
      vertex 27.6683 68.4951 7
      vertex 27.6683 68.4951 0
      vertex 26.7132 67.1717 7
    endloop
  endfacet
  facet normal -0.810885 0.585206 0
    outer loop
      vertex 26.7132 67.1717 7
      vertex 27.6683 68.4951 0
      vertex 26.7132 67.1717 0
    endloop
  endfacet
  facet normal -0.557349 0.830278 0
    outer loop
      vertex 26.7132 67.1717 7
      vertex 26.7132 67.1717 0
      vertex 25.25 66.1895 7
    endloop
  endfacet
  facet normal -0.557349 0.830278 0
    outer loop
      vertex 25.25 66.1895 7
      vertex 26.7132 67.1717 0
      vertex 25.25 66.1895 0
    endloop
  endfacet
  facet normal -0.279566 0.960126 0
    outer loop
      vertex 25.25 66.1895 7
      vertex 25.25 66.1895 0
      vertex 23.4551 65.6668 7
    endloop
  endfacet
  facet normal -0.279566 0.960126 0
    outer loop
      vertex 23.4551 65.6668 7
      vertex 25.25 66.1895 0
      vertex 23.4551 65.6668 0
    endloop
  endfacet
  facet normal 0 1 0
    outer loop
      vertex 23.4551 65.6668 7
      vertex 23.4551 65.6668 0
      vertex 21.5449 65.6668 7
    endloop
  endfacet
  facet normal 0 1 0
    outer loop
      vertex 21.5449 65.6668 7
      vertex 23.4551 65.6668 0
      vertex 21.5449 65.6668 0
    endloop
  endfacet
  facet normal 0.279566 0.960126 0
    outer loop
      vertex 21.5449 65.6668 7
      vertex 21.5449 65.6668 0
      vertex 19.75 66.1895 7
    endloop
  endfacet
  facet normal 0.279566 0.960126 0
    outer loop
      vertex 19.75 66.1895 7
      vertex 21.5449 65.6668 0
      vertex 19.75 66.1895 0
    endloop
  endfacet
  facet normal 0.557349 0.830278 0
    outer loop
      vertex 19.75 66.1895 7
      vertex 19.75 66.1895 0
      vertex 18.2868 67.1717 7
    endloop
  endfacet
  facet normal 0.557349 0.830278 0
    outer loop
      vertex 18.2868 67.1717 7
      vertex 19.75 66.1895 0
      vertex 18.2868 67.1717 0
    endloop
  endfacet
  facet normal 0.810885 0.585206 0
    outer loop
      vertex 17.3317 68.4951 7
      vertex 18.2868 67.1717 7
      vertex 18.2868 67.1717 0
    endloop
  endfacet
  facet normal 0.810885 0.585206 0
    outer loop
      vertex 17.3317 68.4951 0
      vertex 17.3317 68.4951 7
      vertex 18.2868 67.1717 0
    endloop
  endfacet
  facet normal 0 0 1
    outer loop
      vertex 0 26.65 7
      vertex 0 5 7
      vertex 0.381 3.087 7
    endloop
  endfacet
  facet normal 0 0 1
    outer loop
      vertex 3.087 0.381 7
      vertex 0 26.65 7
      vertex 1.464 1.464 7
    endloop
  endfacet
  facet normal 0 0 1
    outer loop
      vertex 1.464 1.464 7
      vertex 0 26.65 7
      vertex 0.381 3.087 7
    endloop
  endfacet
  facet normal 0 0 1
    outer loop
      vertex 5 0 7
      vertex 0 26.65 7
      vertex 3.087 0.381 7
    endloop
  endfacet
  facet normal 0 0 1
    outer loop
      vertex 3.5 10 7
      vertex 0 26.65 7
      vertex 5 0 7
    endloop
  endfacet
  facet normal 0 0 1
    outer loop
      vertex 5.381 23.563 7
      vertex 6.464 25.186 7
      vertex 0 26.65 7
    endloop
  endfacet
  facet normal 0 0 1
    outer loop
      vertex 38.413 5.381 7
      vertex 36.5 5 7
      vertex 43.536 1.464 7
    endloop
  endfacet
  facet normal 0 0 1
    outer loop
      vertex 35 26.65 7
      vertex 36.913 26.269 7
      vertex 45 26.65 7
    endloop
  endfacet
  facet normal 0 0 1
    outer loop
      vertex 10 26.65 7
      vertex 0 26.65 7
      vertex 8.087 26.269 7
    endloop
  endfacet
  facet normal 0 0 1
    outer loop
      vertex 26.5 33.65 7
      vertex 0 26.65 7
      vertex 44.619 28.563 7
    endloop
  endfacet
  facet normal 0 0 1
    outer loop
      vertex 19.75 66.1895 7
      vertex 18.2868 67.1717 7
      vertex 0 26.65 7
    endloop
  endfacet
  facet normal 0 0 1
    outer loop
      vertex 17.1967 75.3033 7
      vertex 0 26.65 7
      vertex 18.75 76.4952 7
    endloop
  endfacet
  facet normal 0 0 1
    outer loop
      vertex 16.0048 73.75 7
      vertex 0 26.65 7
      vertex 17.1967 75.3033 7
    endloop
  endfacet
  facet normal 0 0 1
    outer loop
      vertex 15.2556 71.9411 7
      vertex 0 26.65 7
      vertex 16.0048 73.75 7
    endloop
  endfacet
  facet normal 0 0 1
    outer loop
      vertex 0.381 28.563 7
      vertex 0 26.65 7
      vertex 15.2556 71.9411 7
    endloop
  endfacet
  facet normal 0 0 1
    outer loop
      vertex 3.881 8.087 7
      vertex 3.5 10 7
      vertex 5 0 7
    endloop
  endfacet
  facet normal 0 0 1
    outer loop
      vertex 3.5 10.825 7
      vertex 0 26.65 7
      vertex 3.5 10 7
    endloop
  endfacet
  facet normal 0 0 1
    outer loop
      vertex 18.2868 67.1717 7
      vertex 17.3317 68.4951 7
      vertex 0 26.65 7
    endloop
  endfacet
  facet normal 0 0 1
    outer loop
      vertex 5 21.65 7
      vertex 0 26.65 7
      vertex 3.5 10.825 7
    endloop
  endfacet
  facet normal 0 0 1
    outer loop
      vertex 18.2868 72.8283 7
      vertex 19.75 73.8105 7
      vertex 20.5589 77.2444 7
    endloop
  endfacet
  facet normal 0 0 1
    outer loop
      vertex 36.5 5 7
      vertex 40 0 7
      vertex 41.913 0.381 7
    endloop
  endfacet
  facet normal 0 0 1
    outer loop
      vertex 8.087 26.269 7
      vertex 0 26.65 7
      vertex 6.464 25.186 7
    endloop
  endfacet
  facet normal 0 0 1
    outer loop
      vertex 40 21.65 7
      vertex 41.5 10.825 7
      vertex 45 5 7
    endloop
  endfacet
  facet normal 0 0 1
    outer loop
      vertex 44.619 28.563 7
      vertex 0 26.65 7
      vertex 10 26.65 7
    endloop
  endfacet
  facet normal 0 0 1
    outer loop
      vertex 44.619 28.563 7
      vertex 35 26.65 7
      vertex 45 26.65 7
    endloop
  endfacet
  facet normal 0 0 1
    outer loop
      vertex 44.619 28.563 7
      vertex 10 26.65 7
      vertex 35 26.65 7
    endloop
  endfacet
  facet normal 0 0 1
    outer loop
      vertex 41.119 8.087 7
      vertex 40.036 6.464 7
      vertex 45 5 7
    endloop
  endfacet
  facet normal 0 0 1
    outer loop
      vertex 40.036 6.464 7
      vertex 38.413 5.381 7
      vertex 44.619 3.087 7
    endloop
  endfacet
  facet normal 0 0 1
    outer loop
      vertex 45 26.65 7
      vertex 36.913 26.269 7
      vertex 38.536 25.186 7
    endloop
  endfacet
  facet normal 0 0 1
    outer loop
      vertex 45 26.65 7
      vertex 39.619 23.563 7
      vertex 45 5 7
    endloop
  endfacet
  facet normal 0 0 1
    outer loop
      vertex 45 26.65 7
      vertex 38.536 25.186 7
      vertex 39.619 23.563 7
    endloop
  endfacet
  facet normal 0 0 1
    outer loop
      vertex 39.619 23.563 7
      vertex 40 21.65 7
      vertex 45 5 7
    endloop
  endfacet
  facet normal 0 0 1
    outer loop
      vertex 41.5 10.825 7
      vertex 41.5 10 7
      vertex 45 5 7
    endloop
  endfacet
  facet normal 0 0 1
    outer loop
      vertex 41.5 10 7
      vertex 41.119 8.087 7
      vertex 45 5 7
    endloop
  endfacet
  facet normal 0 0 1
    outer loop
      vertex 45 5 7
      vertex 40.036 6.464 7
      vertex 44.619 3.087 7
    endloop
  endfacet
  facet normal 0 0 1
    outer loop
      vertex 44.619 3.087 7
      vertex 38.413 5.381 7
      vertex 43.536 1.464 7
    endloop
  endfacet
  facet normal 0 0 1
    outer loop
      vertex 43.536 1.464 7
      vertex 36.5 5 7
      vertex 41.913 0.381 7
    endloop
  endfacet
  facet normal 0 0 1
    outer loop
      vertex 40 0 7
      vertex 8.5 5 7
      vertex 5 0 7
    endloop
  endfacet
  facet normal 0 0 1
    outer loop
      vertex 21.5449 74.3332 7
      vertex 23.4551 74.3332 7
      vertex 24.4411 77.2444 7
    endloop
  endfacet
  facet normal 0 0 1
    outer loop
      vertex 8.5 5 7
      vertex 6.587 5.381 7
      vertex 5 0 7
    endloop
  endfacet
  facet normal 0 0 1
    outer loop
      vertex 6.587 5.381 7
      vertex 4.964 6.464 7
      vertex 5 0 7
    endloop
  endfacet
  facet normal 0 0 1
    outer loop
      vertex 4.964 6.464 7
      vertex 3.881 8.087 7
      vertex 5 0 7
    endloop
  endfacet
  facet normal 0 0 1
    outer loop
      vertex 23.4551 74.3332 7
      vertex 25.25 73.8105 7
      vertex 26.25 76.4952 7
    endloop
  endfacet
  facet normal 0 0 1
    outer loop
      vertex 17.3317 71.5049 7
      vertex 18.2868 72.8283 7
      vertex 18.75 76.4952 7
    endloop
  endfacet
  facet normal 0 0 1
    outer loop
      vertex 19.75 73.8105 7
      vertex 21.5449 74.3332 7
      vertex 22.5 77.5 7
    endloop
  endfacet
  facet normal 0 0 1
    outer loop
      vertex 17.3317 71.5049 7
      vertex 0 26.65 7
      vertex 17 70 7
    endloop
  endfacet
  facet normal 0 0 1
    outer loop
      vertex 18.75 76.4952 7
      vertex 0 26.65 7
      vertex 17.3317 71.5049 7
    endloop
  endfacet
  facet normal 0 0 1
    outer loop
      vertex 18.75 76.4952 7
      vertex 18.2868 72.8283 7
      vertex 20.5589 77.2444 7
    endloop
  endfacet
  facet normal 0 0 1
    outer loop
      vertex 20.5589 77.2444 7
      vertex 19.75 73.8105 7
      vertex 22.5 77.5 7
    endloop
  endfacet
  facet normal 0 0 1
    outer loop
      vertex 22.5 77.5 7
      vertex 21.5449 74.3332 7
      vertex 24.4411 77.2444 7
    endloop
  endfacet
  facet normal 0 0 1
    outer loop
      vertex 24.4411 77.2444 7
      vertex 23.4551 74.3332 7
      vertex 26.25 76.4952 7
    endloop
  endfacet
  facet normal 0 0 1
    outer loop
      vertex 26.25 76.4952 7
      vertex 25.25 73.8105 7
      vertex 27.8033 75.3033 7
    endloop
  endfacet
  facet normal 0 0 1
    outer loop
      vertex 27.8033 75.3033 7
      vertex 26.7132 72.8283 7
      vertex 28.9952 73.75 7
    endloop
  endfacet
  facet normal 0 0 1
    outer loop
      vertex 28.9952 73.75 7
      vertex 27.6683 71.5049 7
      vertex 29.7444 71.9411 7
    endloop
  endfacet
  facet normal 0 0 1
    outer loop
      vertex 25.25 66.1895 7
      vertex 23.4551 65.6668 7
      vertex 0 26.65 7
    endloop
  endfacet
  facet normal 0 0 1
    outer loop
      vertex 27.6683 71.5049 7
      vertex 28 70 7
      vertex 29.7444 71.9411 7
    endloop
  endfacet
  facet normal 0 0 1
    outer loop
      vertex 29.7444 71.9411 7
      vertex 27.6683 68.4951 7
      vertex 44.619 28.563 7
    endloop
  endfacet
  facet normal 0 0 1
    outer loop
      vertex 26.7132 67.1717 7
      vertex 0 26.65 7
      vertex 27.6683 68.4951 7
    endloop
  endfacet
  facet normal 0 0 1
    outer loop
      vertex 26.7132 67.1717 7
      vertex 25.25 66.1895 7
      vertex 0 26.65 7
    endloop
  endfacet
  facet normal 0 0 1
    outer loop
      vertex 23.4551 65.6668 7
      vertex 21.5449 65.6668 7
      vertex 0 26.65 7
    endloop
  endfacet
  facet normal 0 0 1
    outer loop
      vertex 28 70 7
      vertex 27.6683 68.4951 7
      vertex 29.7444 71.9411 7
    endloop
  endfacet
  facet normal 0 0 1
    outer loop
      vertex 21.5449 65.6668 7
      vertex 19.75 66.1895 7
      vertex 0 26.65 7
    endloop
  endfacet
  facet normal 0 0 1
    outer loop
      vertex 26.7132 72.8283 7
      vertex 27.6683 71.5049 7
      vertex 28.9952 73.75 7
    endloop
  endfacet
  facet normal 0 0 1
    outer loop
      vertex 25.25 73.8105 7
      vertex 26.7132 72.8283 7
      vertex 27.8033 75.3033 7
    endloop
  endfacet
  facet normal 0 0 1
    outer loop
      vertex 26.5 35.65 7
      vertex 30.5 35.65 7
      vertex 27.6683 68.4951 7
    endloop
  endfacet
  facet normal 0 0 1
    outer loop
      vertex 17.3317 68.4951 7
      vertex 17 70 7
      vertex 0 26.65 7
    endloop
  endfacet
  facet normal 0 0 1
    outer loop
      vertex 30.5 33.65 7
      vertex 26.5 33.65 7
      vertex 44.619 28.563 7
    endloop
  endfacet
  facet normal 0 0 1
    outer loop
      vertex 26.5 35.65 7
      vertex 0 26.65 7
      vertex 26.5 33.65 7
    endloop
  endfacet
  facet normal 0 0 1
    outer loop
      vertex 27.6683 68.4951 7
      vertex 0 26.65 7
      vertex 26.5 35.65 7
    endloop
  endfacet
  facet normal 0 0 1
    outer loop
      vertex 27.6683 68.4951 7
      vertex 30.5 35.65 7
      vertex 44.619 28.563 7
    endloop
  endfacet
  facet normal 0 0 1
    outer loop
      vertex 30.5 35.65 7
      vertex 30.5 33.65 7
      vertex 44.619 28.563 7
    endloop
  endfacet
  facet normal 0 0 1
    outer loop
      vertex 5 21.65 7
      vertex 5.381 23.563 7
      vertex 0 26.65 7
    endloop
  endfacet
  facet normal 0 0 1
    outer loop
      vertex 36.5 5 7
      vertex 8.5 5 7
      vertex 40 0 7
    endloop
  endfacet
  facet normal 0 0 -1
    outer loop
      vertex 12.588 36.0631 4.75
      vertex 13.7222 38.0275 4.75
      vertex 11.8871 33.9058 4.75
    endloop
  endfacet
  facet normal 0 0 -1
    outer loop
      vertex 11.8871 33.9058 4.75
      vertex 13.7222 38.0275 4.75
      vertex 15.2399 39.7131 4.75
    endloop
  endfacet
  facet normal 0 0 -1
    outer loop
      vertex 11.8871 33.9058 4.75
      vertex 15.2399 39.7131 4.75
      vertex 17.075 41.0464 4.75
    endloop
  endfacet
  facet normal 0 0 -1
    outer loop
      vertex 11.8871 33.9058 4.75
      vertex 17.075 41.0464 4.75
      vertex 19.1472 41.969 4.75
    endloop
  endfacet
  facet normal 0 0 -1
    outer loop
      vertex 11.8871 33.9058 4.75
      vertex 19.1472 41.969 4.75
      vertex 21.3659 42.4406 4.75
    endloop
  endfacet
  facet normal 0 0 -1
    outer loop
      vertex 11.8871 33.9058 4.75
      vertex 21.3659 42.4406 4.75
      vertex 23.6341 42.4406 4.75
    endloop
  endfacet
  facet normal 0 0 -1
    outer loop
      vertex 11.8871 33.9058 4.75
      vertex 23.6341 42.4406 4.75
      vertex 25.8528 41.969 4.75
    endloop
  endfacet
  facet normal 0 0 -1
    outer loop
      vertex 11.8871 33.9058 4.75
      vertex 25.8528 41.969 4.75
      vertex 27.925 41.0464 4.75
    endloop
  endfacet
  facet normal 0 0 -1
    outer loop
      vertex 11.8871 33.9058 4.75
      vertex 27.925 41.0464 4.75
      vertex 29.7601 39.7131 4.75
    endloop
  endfacet
  facet normal 0 0 -1
    outer loop
      vertex 11.8871 33.9058 4.75
      vertex 29.7601 39.7131 4.75
      vertex 31.2778 38.0275 4.75
    endloop
  endfacet
  facet normal 0 0 -1
    outer loop
      vertex 11.8871 33.9058 4.75
      vertex 31.2778 38.0275 4.75
      vertex 32.412 36.0631 4.75
    endloop
  endfacet
  facet normal 0 0 -1
    outer loop
      vertex 11.8871 33.9058 4.75
      vertex 32.412 36.0631 4.75
      vertex 33.1129 33.9058 4.75
    endloop
  endfacet
  facet normal 0 0 -1
    outer loop
      vertex 11.8871 33.9058 4.75
      vertex 33.1129 33.9058 4.75
      vertex 33.35 31.65 4.75
    endloop
  endfacet
  facet normal 0 0 -1
    outer loop
      vertex 11.8871 33.9058 4.75
      vertex 33.35 31.65 4.75
      vertex 33.1129 29.3942 4.75
    endloop
  endfacet
  facet normal 0 0 -1
    outer loop
      vertex 11.8871 33.9058 4.75
      vertex 33.1129 29.3942 4.75
      vertex 32.412 27.2369 4.75
    endloop
  endfacet
  facet normal 0 0 -1
    outer loop
      vertex 11.8871 33.9058 4.75
      vertex 32.412 27.2369 4.75
      vertex 32.0731 26.65 4.75
    endloop
  endfacet
  facet normal 0 0 -1
    outer loop
      vertex 11.8871 33.9058 4.75
      vertex 32.0731 26.65 4.75
      vertex 12.9269 26.65 4.75
    endloop
  endfacet
  facet normal 0 0 -1
    outer loop
      vertex 11.8871 33.9058 4.75
      vertex 12.9269 26.65 4.75
      vertex 12.588 27.2369 4.75
    endloop
  endfacet
  facet normal 0 0 -1
    outer loop
      vertex 11.8871 33.9058 4.75
      vertex 12.588 27.2369 4.75
      vertex 11.8871 29.3942 4.75
    endloop
  endfacet
  facet normal 0 0 -1
    outer loop
      vertex 11.8871 33.9058 4.75
      vertex 11.8871 29.3942 4.75
      vertex 11.65 31.65 4.75
    endloop
  endfacet
  facet normal 0.866025 0.5 0
    outer loop
      vertex 12.588 27.2369 4.75
      vertex 12.9269 26.65 4.75
      vertex 12.9269 26.65 2.25
    endloop
  endfacet
  facet normal 0.866025 0.5 0
    outer loop
      vertex 12.588 27.2369 2.25
      vertex 12.588 27.2369 4.75
      vertex 12.9269 26.65 2.25
    endloop
  endfacet
  facet normal 0 0 1
    outer loop
      vertex 11.8871 29.3942 2.25
      vertex 12.588 27.2369 2.25
      vertex 12.9269 26.65 2.25
    endloop
  endfacet
  facet normal 0 0 1
    outer loop
      vertex 32.412 27.2369 2.25
      vertex 11.8871 29.3942 2.25
      vertex 32.0731 26.65 2.25
    endloop
  endfacet
  facet normal 0 0 1
    outer loop
      vertex 32.0731 26.65 2.25
      vertex 11.8871 29.3942 2.25
      vertex 12.9269 26.65 2.25
    endloop
  endfacet
  facet normal 0 0 1
    outer loop
      vertex 33.1129 29.3942 2.25
      vertex 11.8871 29.3942 2.25
      vertex 32.412 27.2369 2.25
    endloop
  endfacet
  facet normal 0 0 1
    outer loop
      vertex 33.35 31.65 2.25
      vertex 11.8871 29.3942 2.25
      vertex 33.1129 29.3942 2.25
    endloop
  endfacet
  facet normal 0 0 1
    outer loop
      vertex 33.1129 33.9058 2.25
      vertex 11.8871 29.3942 2.25
      vertex 33.35 31.65 2.25
    endloop
  endfacet
  facet normal 0 0 1
    outer loop
      vertex 32.412 36.0631 2.25
      vertex 11.8871 29.3942 2.25
      vertex 33.1129 33.9058 2.25
    endloop
  endfacet
  facet normal 0 0 1
    outer loop
      vertex 31.2778 38.0275 2.25
      vertex 11.8871 29.3942 2.25
      vertex 32.412 36.0631 2.25
    endloop
  endfacet
  facet normal 0 0 1
    outer loop
      vertex 29.7601 39.7131 2.25
      vertex 11.8871 29.3942 2.25
      vertex 31.2778 38.0275 2.25
    endloop
  endfacet
  facet normal 0 0 1
    outer loop
      vertex 27.925 41.0464 2.25
      vertex 11.8871 29.3942 2.25
      vertex 29.7601 39.7131 2.25
    endloop
  endfacet
  facet normal 0 0 1
    outer loop
      vertex 25.8528 41.969 2.25
      vertex 11.8871 29.3942 2.25
      vertex 27.925 41.0464 2.25
    endloop
  endfacet
  facet normal 0 0 1
    outer loop
      vertex 23.6341 42.4406 2.25
      vertex 11.8871 29.3942 2.25
      vertex 25.8528 41.969 2.25
    endloop
  endfacet
  facet normal 0 0 1
    outer loop
      vertex 21.3659 42.4406 2.25
      vertex 11.8871 29.3942 2.25
      vertex 23.6341 42.4406 2.25
    endloop
  endfacet
  facet normal 0 0 1
    outer loop
      vertex 19.1472 41.969 2.25
      vertex 11.8871 29.3942 2.25
      vertex 21.3659 42.4406 2.25
    endloop
  endfacet
  facet normal 0 0 1
    outer loop
      vertex 17.075 41.0464 2.25
      vertex 11.8871 29.3942 2.25
      vertex 19.1472 41.969 2.25
    endloop
  endfacet
  facet normal 0 0 1
    outer loop
      vertex 15.2399 39.7131 2.25
      vertex 11.8871 29.3942 2.25
      vertex 17.075 41.0464 2.25
    endloop
  endfacet
  facet normal 0 0 1
    outer loop
      vertex 13.7222 38.0275 2.25
      vertex 11.8871 29.3942 2.25
      vertex 15.2399 39.7131 2.25
    endloop
  endfacet
  facet normal 0 0 1
    outer loop
      vertex 12.588 36.0631 2.25
      vertex 11.8871 29.3942 2.25
      vertex 13.7222 38.0275 2.25
    endloop
  endfacet
  facet normal 0 0 1
    outer loop
      vertex 11.8871 33.9058 2.25
      vertex 11.8871 29.3942 2.25
      vertex 12.588 36.0631 2.25
    endloop
  endfacet
  facet normal 0 0 1
    outer loop
      vertex 11.65 31.65 2.25
      vertex 11.8871 29.3942 2.25
      vertex 11.8871 33.9058 2.25
    endloop
  endfacet
  facet normal -0.866025 0.5 0
    outer loop
      vertex 32.412 27.2369 4.75
      vertex 32.412 27.2369 2.25
      vertex 32.0731 26.65 4.75
    endloop
  endfacet
  facet normal -0.866025 0.5 0
    outer loop
      vertex 32.0731 26.65 4.75
      vertex 32.412 27.2369 2.25
      vertex 32.0731 26.65 2.25
    endloop
  endfacet
  facet normal -1 1.22461e-016 0
    outer loop
      vertex 26.5 33.65 8.5
      vertex 26.5 37.65 8.5
      vertex 26.5 33.65 7
    endloop
  endfacet
  facet normal -1 1.22461e-016 0
    outer loop
      vertex 26.5 33.65 7
      vertex 26.5 37.65 8.5
      vertex 26.5 37.65 7
    endloop
  endfacet
  facet normal -1 1.22461e-016 0
    outer loop
      vertex 26.5 33.65 7
      vertex 26.5 37.65 7
      vertex 26.5 35.65 7
    endloop
  endfacet
  facet normal -1.22461e-016 -1 -1.22461e-016
    outer loop
      vertex 30.5 33.65 8.5
      vertex 26.5 33.65 8.5
      vertex 26.5 33.65 7
    endloop
  endfacet
  facet normal -1.22461e-016 -1 -1.22461e-016
    outer loop
      vertex 30.5 33.65 7
      vertex 30.5 33.65 8.5
      vertex 26.5 33.65 7
    endloop
  endfacet
  facet normal 1 -1.22461e-016 0
    outer loop
      vertex 30.5 37.65 8.5
      vertex 30.5 33.65 8.5
      vertex 30.5 33.65 7
    endloop
  endfacet
  facet normal 1 -1.22461e-016 0
    outer loop
      vertex 30.5 37.65 7
      vertex 30.5 37.65 8.5
      vertex 30.5 35.65 7
    endloop
  endfacet
  facet normal 1 -1.22461e-016 0
    outer loop
      vertex 30.5 35.65 7
      vertex 30.5 37.65 8.5
      vertex 30.5 33.65 7
    endloop
  endfacet
  facet normal 1.49966e-032 1.22461e-016 -1
    outer loop
      vertex 26.5 35.65 7
      vertex 26.5 37.65 7
      vertex 30.5 35.65 7
    endloop
  endfacet
  facet normal 1.49966e-032 1.22461e-016 -1
    outer loop
      vertex 30.5 35.65 7
      vertex 26.5 37.65 7
      vertex 30.5 37.65 7
    endloop
  endfacet
  facet normal 0.951057 -0.309017 0
    outer loop
      vertex 12.588 36.0631 2.25
      vertex 12.588 36.0631 4.75
      vertex 11.8871 33.9058 4.75
    endloop
  endfacet
  facet normal 0.951057 -0.309017 0
    outer loop
      vertex 11.8871 33.9058 2.25
      vertex 12.588 36.0631 2.25
      vertex 11.8871 33.9058 4.75
    endloop
  endfacet
  facet normal 0.994522 -0.104529 0
    outer loop
      vertex 11.8871 33.9058 2.25
      vertex 11.8871 33.9058 4.75
      vertex 11.65 31.65 4.75
    endloop
  endfacet
  facet normal 0.994522 -0.104529 0
    outer loop
      vertex 11.65 31.65 2.25
      vertex 11.8871 33.9058 2.25
      vertex 11.65 31.65 4.75
    endloop
  endfacet
  facet normal 0.994522 0.104529 0
    outer loop
      vertex 11.65 31.65 4.75
      vertex 11.8871 29.3942 4.75
      vertex 11.8871 29.3942 2.25
    endloop
  endfacet
  facet normal 0.994522 0.104529 0
    outer loop
      vertex 11.65 31.65 2.25
      vertex 11.65 31.65 4.75
      vertex 11.8871 29.3942 2.25
    endloop
  endfacet
  facet normal 0.951057 0.309017 0
    outer loop
      vertex 11.8871 29.3942 4.75
      vertex 12.588 27.2369 4.75
      vertex 12.588 27.2369 2.25
    endloop
  endfacet
  facet normal 0.951057 0.309017 0
    outer loop
      vertex 11.8871 29.3942 2.25
      vertex 11.8871 29.3942 4.75
      vertex 12.588 27.2369 2.25
    endloop
  endfacet
  facet normal -0.951057 0.309017 0
    outer loop
      vertex 33.1129 29.3942 4.75
      vertex 33.1129 29.3942 2.25
      vertex 32.412 27.2369 4.75
    endloop
  endfacet
  facet normal -0.951057 0.309017 0
    outer loop
      vertex 32.412 27.2369 4.75
      vertex 33.1129 29.3942 2.25
      vertex 32.412 27.2369 2.25
    endloop
  endfacet
  facet normal -0.994522 0.104529 0
    outer loop
      vertex 33.35 31.65 4.75
      vertex 33.35 31.65 2.25
      vertex 33.1129 29.3942 4.75
    endloop
  endfacet
  facet normal -0.994522 0.104529 0
    outer loop
      vertex 33.1129 29.3942 4.75
      vertex 33.35 31.65 2.25
      vertex 33.1129 29.3942 2.25
    endloop
  endfacet
  facet normal -0.994522 -0.104529 0
    outer loop
      vertex 33.35 31.65 4.75
      vertex 33.1129 33.9058 4.75
      vertex 33.35 31.65 2.25
    endloop
  endfacet
  facet normal -0.994522 -0.104529 0
    outer loop
      vertex 33.35 31.65 2.25
      vertex 33.1129 33.9058 4.75
      vertex 33.1129 33.9058 2.25
    endloop
  endfacet
  facet normal -0.951057 -0.309017 0
    outer loop
      vertex 33.1129 33.9058 4.75
      vertex 32.412 36.0631 4.75
      vertex 33.1129 33.9058 2.25
    endloop
  endfacet
  facet normal -0.951057 -0.309017 0
    outer loop
      vertex 33.1129 33.9058 2.25
      vertex 32.412 36.0631 4.75
      vertex 32.412 36.0631 2.25
    endloop
  endfacet
  facet normal -0.866025 -0.5 0
    outer loop
      vertex 32.412 36.0631 4.75
      vertex 31.2778 38.0275 4.75
      vertex 32.412 36.0631 2.25
    endloop
  endfacet
  facet normal -0.866025 -0.5 0
    outer loop
      vertex 32.412 36.0631 2.25
      vertex 31.2778 38.0275 4.75
      vertex 31.2778 38.0275 2.25
    endloop
  endfacet
  facet normal -0.743145 -0.669131 0
    outer loop
      vertex 31.2778 38.0275 4.75
      vertex 29.7601 39.7131 4.75
      vertex 31.2778 38.0275 2.25
    endloop
  endfacet
  facet normal -0.743145 -0.669131 0
    outer loop
      vertex 31.2778 38.0275 2.25
      vertex 29.7601 39.7131 4.75
      vertex 29.7601 39.7131 2.25
    endloop
  endfacet
  facet normal -0.587785 -0.809017 0
    outer loop
      vertex 29.7601 39.7131 2.25
      vertex 29.7601 39.7131 4.75
      vertex 27.925 41.0464 4.75
    endloop
  endfacet
  facet normal -0.587785 -0.809017 0
    outer loop
      vertex 27.925 41.0464 2.25
      vertex 29.7601 39.7131 2.25
      vertex 27.925 41.0464 4.75
    endloop
  endfacet
  facet normal -0.406736 -0.913546 0
    outer loop
      vertex 27.925 41.0464 2.25
      vertex 27.925 41.0464 4.75
      vertex 25.8528 41.969 4.75
    endloop
  endfacet
  facet normal -0.406736 -0.913546 0
    outer loop
      vertex 25.8528 41.969 2.25
      vertex 27.925 41.0464 2.25
      vertex 25.8528 41.969 4.75
    endloop
  endfacet
  facet normal -0.207912 -0.978148 0
    outer loop
      vertex 25.8528 41.969 2.25
      vertex 25.8528 41.969 4.75
      vertex 23.6341 42.4406 4.75
    endloop
  endfacet
  facet normal -0.207912 -0.978148 0
    outer loop
      vertex 23.6341 42.4406 2.25
      vertex 25.8528 41.969 2.25
      vertex 23.6341 42.4406 4.75
    endloop
  endfacet
  facet normal 0 -1 0
    outer loop
      vertex 23.6341 42.4406 2.25
      vertex 23.6341 42.4406 4.75
      vertex 21.3659 42.4406 4.75
    endloop
  endfacet
  facet normal 0 -1 0
    outer loop
      vertex 21.3659 42.4406 2.25
      vertex 23.6341 42.4406 2.25
      vertex 21.3659 42.4406 4.75
    endloop
  endfacet
  facet normal 0.207912 -0.978148 0
    outer loop
      vertex 21.3659 42.4406 2.25
      vertex 21.3659 42.4406 4.75
      vertex 19.1472 41.969 4.75
    endloop
  endfacet
  facet normal 0.207912 -0.978148 0
    outer loop
      vertex 19.1472 41.969 2.25
      vertex 21.3659 42.4406 2.25
      vertex 19.1472 41.969 4.75
    endloop
  endfacet
  facet normal 0.406736 -0.913546 0
    outer loop
      vertex 19.1472 41.969 2.25
      vertex 19.1472 41.969 4.75
      vertex 17.075 41.0464 4.75
    endloop
  endfacet
  facet normal 0.406736 -0.913546 0
    outer loop
      vertex 17.075 41.0464 2.25
      vertex 19.1472 41.969 2.25
      vertex 17.075 41.0464 4.75
    endloop
  endfacet
  facet normal 0.587785 -0.809017 0
    outer loop
      vertex 17.075 41.0464 2.25
      vertex 17.075 41.0464 4.75
      vertex 15.2399 39.7131 4.75
    endloop
  endfacet
  facet normal 0.587785 -0.809017 0
    outer loop
      vertex 15.2399 39.7131 2.25
      vertex 17.075 41.0464 2.25
      vertex 15.2399 39.7131 4.75
    endloop
  endfacet
  facet normal 0.743145 -0.669131 0
    outer loop
      vertex 15.2399 39.7131 2.25
      vertex 15.2399 39.7131 4.75
      vertex 13.7222 38.0275 4.75
    endloop
  endfacet
  facet normal 0.743145 -0.669131 0
    outer loop
      vertex 13.7222 38.0275 2.25
      vertex 15.2399 39.7131 2.25
      vertex 13.7222 38.0275 4.75
    endloop
  endfacet
  facet normal 0.866025 -0.5 0
    outer loop
      vertex 13.7222 38.0275 2.25
      vertex 13.7222 38.0275 4.75
      vertex 12.588 36.0631 4.75
    endloop
  endfacet
  facet normal 0.866025 -0.5 0
    outer loop
      vertex 12.588 36.0631 2.25
      vertex 13.7222 38.0275 2.25
      vertex 12.588 36.0631 4.75
    endloop
  endfacet
  facet normal 1.22461e-016 1 1.22461e-016
    outer loop
      vertex 26.5 37.65 8.5
      vertex 30.5 37.65 8.5
      vertex 26.5 37.65 7
    endloop
  endfacet
  facet normal 1.22461e-016 1 1.22461e-016
    outer loop
      vertex 26.5 37.65 7
      vertex 30.5 37.65 8.5
      vertex 30.5 37.65 7
    endloop
  endfacet
  facet normal -1.49966e-032 -1.22461e-016 1
    outer loop
      vertex 26.5 37.65 8.5
      vertex 26.5 33.65 8.5
      vertex 30.5 33.65 8.5
    endloop
  endfacet
  facet normal -1.49966e-032 -1.22461e-016 1
    outer loop
      vertex 30.5 37.65 8.5
      vertex 26.5 37.65 8.5
      vertex 30.5 33.65 8.5
    endloop
  endfacet
  facet normal -1 1.22461e-016 0
    outer loop
      vertex 26.5 39.65 8.5
      vertex 26.5 43.65 8.5
      vertex 26.5 39.65 7
    endloop
  endfacet
  facet normal -1 1.22461e-016 0
    outer loop
      vertex 26.5 39.65 7
      vertex 26.5 43.65 8.5
      vertex 26.5 43.65 7
    endloop
  endfacet
  facet normal -1.49966e-032 -1.22461e-016 1
    outer loop
      vertex 26.5 43.65 8.5
      vertex 26.5 39.65 8.5
      vertex 30.5 39.65 8.5
    endloop
  endfacet
  facet normal -1.49966e-032 -1.22461e-016 1
    outer loop
      vertex 30.5 43.65 8.5
      vertex 26.5 43.65 8.5
      vertex 30.5 39.65 8.5
    endloop
  endfacet
  facet normal -1.22461e-016 -1 -1.22461e-016
    outer loop
      vertex 30.5 39.65 8.5
      vertex 26.5 39.65 8.5
      vertex 26.5 39.65 7
    endloop
  endfacet
  facet normal -1.22461e-016 -1 -1.22461e-016
    outer loop
      vertex 30.5 39.65 7
      vertex 30.5 39.65 8.5
      vertex 26.5 39.65 7
    endloop
  endfacet
  facet normal 1.49966e-032 1.22461e-016 -1
    outer loop
      vertex 26.5 39.65 7
      vertex 26.5 43.65 7
      vertex 30.5 39.65 7
    endloop
  endfacet
  facet normal 1.49966e-032 1.22461e-016 -1
    outer loop
      vertex 30.5 39.65 7
      vertex 26.5 43.65 7
      vertex 30.5 43.65 7
    endloop
  endfacet
  facet normal 1.22461e-016 1 1.22461e-016
    outer loop
      vertex 26.5 43.65 8.5
      vertex 30.5 43.65 8.5
      vertex 26.5 43.65 7
    endloop
  endfacet
  facet normal 1.22461e-016 1 1.22461e-016
    outer loop
      vertex 26.5 43.65 7
      vertex 30.5 43.65 8.5
      vertex 30.5 43.65 7
    endloop
  endfacet
  facet normal 1 -1.22461e-016 0
    outer loop
      vertex 30.5 43.65 8.5
      vertex 30.5 39.65 8.5
      vertex 30.5 39.65 7
    endloop
  endfacet
  facet normal 1 -1.22461e-016 0
    outer loop
      vertex 30.5 43.65 7
      vertex 30.5 43.65 8.5
      vertex 30.5 39.65 7
    endloop
  endfacet
  facet normal -1 1.22461e-016 0
    outer loop
      vertex 26.5 45.65 8.5
      vertex 26.5 49.65 8.5
      vertex 26.5 45.65 7
    endloop
  endfacet
  facet normal -1 1.22461e-016 0
    outer loop
      vertex 26.5 45.65 7
      vertex 26.5 49.65 8.5
      vertex 26.5 49.65 7
    endloop
  endfacet
  facet normal -1.49966e-032 -1.22461e-016 1
    outer loop
      vertex 26.5 49.65 8.5
      vertex 26.5 45.65 8.5
      vertex 30.5 45.65 8.5
    endloop
  endfacet
  facet normal -1.49966e-032 -1.22461e-016 1
    outer loop
      vertex 30.5 49.65 8.5
      vertex 26.5 49.65 8.5
      vertex 30.5 45.65 8.5
    endloop
  endfacet
  facet normal -1.22461e-016 -1 -1.22461e-016
    outer loop
      vertex 30.5 45.65 8.5
      vertex 26.5 45.65 8.5
      vertex 26.5 45.65 7
    endloop
  endfacet
  facet normal -1.22461e-016 -1 -1.22461e-016
    outer loop
      vertex 30.5 45.65 7
      vertex 30.5 45.65 8.5
      vertex 26.5 45.65 7
    endloop
  endfacet
  facet normal 1.49966e-032 1.22461e-016 -1
    outer loop
      vertex 26.5 45.65 7
      vertex 26.5 49.65 7
      vertex 30.5 45.65 7
    endloop
  endfacet
  facet normal 1.49966e-032 1.22461e-016 -1
    outer loop
      vertex 30.5 45.65 7
      vertex 26.5 49.65 7
      vertex 30.5 49.65 7
    endloop
  endfacet
  facet normal 1.22461e-016 1 1.22461e-016
    outer loop
      vertex 26.5 49.65 8.5
      vertex 30.5 49.65 8.5
      vertex 26.5 49.65 7
    endloop
  endfacet
  facet normal 1.22461e-016 1 1.22461e-016
    outer loop
      vertex 26.5 49.65 7
      vertex 30.5 49.65 8.5
      vertex 30.5 49.65 7
    endloop
  endfacet
  facet normal 1 -1.22461e-016 0
    outer loop
      vertex 30.5 49.65 8.5
      vertex 30.5 45.65 8.5
      vertex 30.5 45.65 7
    endloop
  endfacet
  facet normal 1 -1.22461e-016 0
    outer loop
      vertex 30.5 49.65 7
      vertex 30.5 49.65 8.5
      vertex 30.5 45.65 7
    endloop
  endfacet
  facet normal -1 1.22461e-016 0
    outer loop
      vertex 20.5 45.65 8.5
      vertex 20.5 49.65 8.5
      vertex 20.5 45.65 7
    endloop
  endfacet
  facet normal -1 1.22461e-016 0
    outer loop
      vertex 20.5 45.65 7
      vertex 20.5 49.65 8.5
      vertex 20.5 49.65 7
    endloop
  endfacet
  facet normal -1.49966e-032 -1.22461e-016 1
    outer loop
      vertex 20.5 49.65 8.5
      vertex 20.5 45.65 8.5
      vertex 24.5 45.65 8.5
    endloop
  endfacet
  facet normal -1.49966e-032 -1.22461e-016 1
    outer loop
      vertex 24.5 49.65 8.5
      vertex 20.5 49.65 8.5
      vertex 24.5 45.65 8.5
    endloop
  endfacet
  facet normal -1.22461e-016 -1 -1.22461e-016
    outer loop
      vertex 24.5 45.65 8.5
      vertex 20.5 45.65 8.5
      vertex 20.5 45.65 7
    endloop
  endfacet
  facet normal -1.22461e-016 -1 -1.22461e-016
    outer loop
      vertex 24.5 45.65 7
      vertex 24.5 45.65 8.5
      vertex 20.5 45.65 7
    endloop
  endfacet
  facet normal 1.49966e-032 1.22461e-016 -1
    outer loop
      vertex 20.5 45.65 7
      vertex 20.5 49.65 7
      vertex 24.5 45.65 7
    endloop
  endfacet
  facet normal 1.49966e-032 1.22461e-016 -1
    outer loop
      vertex 24.5 45.65 7
      vertex 20.5 49.65 7
      vertex 24.5 49.65 7
    endloop
  endfacet
  facet normal 1.22461e-016 1 1.22461e-016
    outer loop
      vertex 20.5 49.65 8.5
      vertex 24.5 49.65 8.5
      vertex 20.5 49.65 7
    endloop
  endfacet
  facet normal 1.22461e-016 1 1.22461e-016
    outer loop
      vertex 20.5 49.65 7
      vertex 24.5 49.65 8.5
      vertex 24.5 49.65 7
    endloop
  endfacet
  facet normal 1 -1.22461e-016 0
    outer loop
      vertex 24.5 49.65 8.5
      vertex 24.5 45.65 8.5
      vertex 24.5 45.65 7
    endloop
  endfacet
  facet normal 1 -1.22461e-016 0
    outer loop
      vertex 24.5 49.65 7
      vertex 24.5 49.65 8.5
      vertex 24.5 45.65 7
    endloop
  endfacet
  facet normal -1 1.22461e-016 0
    outer loop
      vertex 14.5 45.65 8.5
      vertex 14.5 49.65 8.5
      vertex 14.5 45.65 7
    endloop
  endfacet
  facet normal -1 1.22461e-016 0
    outer loop
      vertex 14.5 45.65 7
      vertex 14.5 49.65 8.5
      vertex 14.5 49.65 7
    endloop
  endfacet
  facet normal -1.49966e-032 -1.22461e-016 1
    outer loop
      vertex 14.5 49.65 8.5
      vertex 14.5 45.65 8.5
      vertex 18.5 45.65 8.5
    endloop
  endfacet
  facet normal -1.49966e-032 -1.22461e-016 1
    outer loop
      vertex 18.5 49.65 8.5
      vertex 14.5 49.65 8.5
      vertex 18.5 45.65 8.5
    endloop
  endfacet
  facet normal -1.22461e-016 -1 -1.22461e-016
    outer loop
      vertex 18.5 45.65 8.5
      vertex 14.5 45.65 8.5
      vertex 14.5 45.65 7
    endloop
  endfacet
  facet normal -1.22461e-016 -1 -1.22461e-016
    outer loop
      vertex 18.5 45.65 7
      vertex 18.5 45.65 8.5
      vertex 14.5 45.65 7
    endloop
  endfacet
  facet normal 1.49966e-032 1.22461e-016 -1
    outer loop
      vertex 14.5 45.65 7
      vertex 14.5 49.65 7
      vertex 18.5 45.65 7
    endloop
  endfacet
  facet normal 1.49966e-032 1.22461e-016 -1
    outer loop
      vertex 18.5 45.65 7
      vertex 14.5 49.65 7
      vertex 18.5 49.65 7
    endloop
  endfacet
  facet normal 1.22461e-016 1 1.22461e-016
    outer loop
      vertex 14.5 49.65 8.5
      vertex 18.5 49.65 8.5
      vertex 14.5 49.65 7
    endloop
  endfacet
  facet normal 1.22461e-016 1 1.22461e-016
    outer loop
      vertex 14.5 49.65 7
      vertex 18.5 49.65 8.5
      vertex 18.5 49.65 7
    endloop
  endfacet
  facet normal 1 -1.22461e-016 0
    outer loop
      vertex 18.5 49.65 8.5
      vertex 18.5 45.65 8.5
      vertex 18.5 45.65 7
    endloop
  endfacet
  facet normal 1 -1.22461e-016 0
    outer loop
      vertex 18.5 49.65 7
      vertex 18.5 49.65 8.5
      vertex 18.5 45.65 7
    endloop
  endfacet
  facet normal -1 1.22461e-016 0
    outer loop
      vertex 26.5 51.65 8.5
      vertex 26.5 55.65 8.5
      vertex 26.5 51.65 7
    endloop
  endfacet
  facet normal -1 1.22461e-016 0
    outer loop
      vertex 26.5 51.65 7
      vertex 26.5 55.65 8.5
      vertex 26.5 55.65 7
    endloop
  endfacet
  facet normal -1.49966e-032 -1.22461e-016 1
    outer loop
      vertex 26.5 55.65 8.5
      vertex 26.5 51.65 8.5
      vertex 30.5 51.65 8.5
    endloop
  endfacet
  facet normal -1.49966e-032 -1.22461e-016 1
    outer loop
      vertex 30.5 55.65 8.5
      vertex 26.5 55.65 8.5
      vertex 30.5 51.65 8.5
    endloop
  endfacet
  facet normal -1.22461e-016 -1 -1.22461e-016
    outer loop
      vertex 30.5 51.65 8.5
      vertex 26.5 51.65 8.5
      vertex 26.5 51.65 7
    endloop
  endfacet
  facet normal -1.22461e-016 -1 -1.22461e-016
    outer loop
      vertex 30.5 51.65 7
      vertex 30.5 51.65 8.5
      vertex 26.5 51.65 7
    endloop
  endfacet
  facet normal 1.49966e-032 1.22461e-016 -1
    outer loop
      vertex 26.5 51.65 7
      vertex 26.5 55.65 7
      vertex 30.5 51.65 7
    endloop
  endfacet
  facet normal 1.49966e-032 1.22461e-016 -1
    outer loop
      vertex 30.5 51.65 7
      vertex 26.5 55.65 7
      vertex 30.5 55.65 7
    endloop
  endfacet
  facet normal 1.22461e-016 1 1.22461e-016
    outer loop
      vertex 26.5 55.65 8.5
      vertex 30.5 55.65 8.5
      vertex 26.5 55.65 7
    endloop
  endfacet
  facet normal 1.22461e-016 1 1.22461e-016
    outer loop
      vertex 26.5 55.65 7
      vertex 30.5 55.65 8.5
      vertex 30.5 55.65 7
    endloop
  endfacet
  facet normal 1 -1.22461e-016 0
    outer loop
      vertex 30.5 55.65 8.5
      vertex 30.5 51.65 8.5
      vertex 30.5 51.65 7
    endloop
  endfacet
  facet normal 1 -1.22461e-016 0
    outer loop
      vertex 30.5 55.65 7
      vertex 30.5 55.65 8.5
      vertex 30.5 51.65 7
    endloop
  endfacet
  facet normal -1 1.22461e-016 0
    outer loop
      vertex 14.5 51.65 8.5
      vertex 14.5 55.65 8.5
      vertex 14.5 51.65 7
    endloop
  endfacet
  facet normal -1 1.22461e-016 0
    outer loop
      vertex 14.5 51.65 7
      vertex 14.5 55.65 8.5
      vertex 14.5 55.65 7
    endloop
  endfacet
  facet normal -1.49966e-032 -1.22461e-016 1
    outer loop
      vertex 14.5 55.65 8.5
      vertex 14.5 51.65 8.5
      vertex 18.5 51.65 8.5
    endloop
  endfacet
  facet normal -1.49966e-032 -1.22461e-016 1
    outer loop
      vertex 18.5 55.65 8.5
      vertex 14.5 55.65 8.5
      vertex 18.5 51.65 8.5
    endloop
  endfacet
  facet normal -1.22461e-016 -1 -1.22461e-016
    outer loop
      vertex 18.5 51.65 8.5
      vertex 14.5 51.65 8.5
      vertex 14.5 51.65 7
    endloop
  endfacet
  facet normal -1.22461e-016 -1 -1.22461e-016
    outer loop
      vertex 18.5 51.65 7
      vertex 18.5 51.65 8.5
      vertex 14.5 51.65 7
    endloop
  endfacet
  facet normal 1.49966e-032 1.22461e-016 -1
    outer loop
      vertex 14.5 51.65 7
      vertex 14.5 55.65 7
      vertex 18.5 51.65 7
    endloop
  endfacet
  facet normal 1.49966e-032 1.22461e-016 -1
    outer loop
      vertex 18.5 51.65 7
      vertex 14.5 55.65 7
      vertex 18.5 55.65 7
    endloop
  endfacet
  facet normal 1.22461e-016 1 1.22461e-016
    outer loop
      vertex 14.5 55.65 8.5
      vertex 18.5 55.65 8.5
      vertex 14.5 55.65 7
    endloop
  endfacet
  facet normal 1.22461e-016 1 1.22461e-016
    outer loop
      vertex 14.5 55.65 7
      vertex 18.5 55.65 8.5
      vertex 18.5 55.65 7
    endloop
  endfacet
  facet normal 1 -1.22461e-016 0
    outer loop
      vertex 18.5 55.65 8.5
      vertex 18.5 51.65 8.5
      vertex 18.5 51.65 7
    endloop
  endfacet
  facet normal 1 -1.22461e-016 0
    outer loop
      vertex 18.5 55.65 7
      vertex 18.5 55.65 8.5
      vertex 18.5 51.65 7
    endloop
  endfacet
  facet normal -1 1.22461e-016 0
    outer loop
      vertex 26.5 57.65 8.5
      vertex 26.5 61.65 8.5
      vertex 26.5 57.65 7
    endloop
  endfacet
  facet normal -1 1.22461e-016 0
    outer loop
      vertex 26.5 57.65 7
      vertex 26.5 61.65 8.5
      vertex 26.5 61.65 7
    endloop
  endfacet
  facet normal -1.49966e-032 -1.22461e-016 1
    outer loop
      vertex 26.5 61.65 8.5
      vertex 26.5 57.65 8.5
      vertex 30.5 57.65 8.5
    endloop
  endfacet
  facet normal -1.49966e-032 -1.22461e-016 1
    outer loop
      vertex 30.5 61.65 8.5
      vertex 26.5 61.65 8.5
      vertex 30.5 57.65 8.5
    endloop
  endfacet
  facet normal -1.22461e-016 -1 -1.22461e-016
    outer loop
      vertex 30.5 57.65 8.5
      vertex 26.5 57.65 8.5
      vertex 26.5 57.65 7
    endloop
  endfacet
  facet normal -1.22461e-016 -1 -1.22461e-016
    outer loop
      vertex 30.5 57.65 7
      vertex 30.5 57.65 8.5
      vertex 26.5 57.65 7
    endloop
  endfacet
  facet normal 1.49966e-032 1.22461e-016 -1
    outer loop
      vertex 26.5 57.65 7
      vertex 26.5 61.65 7
      vertex 30.5 57.65 7
    endloop
  endfacet
  facet normal 1.49966e-032 1.22461e-016 -1
    outer loop
      vertex 30.5 57.65 7
      vertex 26.5 61.65 7
      vertex 30.5 61.65 7
    endloop
  endfacet
  facet normal 1.22461e-016 1 1.22461e-016
    outer loop
      vertex 26.5 61.65 8.5
      vertex 30.5 61.65 8.5
      vertex 26.5 61.65 7
    endloop
  endfacet
  facet normal 1.22461e-016 1 1.22461e-016
    outer loop
      vertex 26.5 61.65 7
      vertex 30.5 61.65 8.5
      vertex 30.5 61.65 7
    endloop
  endfacet
  facet normal 1 -1.22461e-016 0
    outer loop
      vertex 30.5 61.65 8.5
      vertex 30.5 57.65 8.5
      vertex 30.5 57.65 7
    endloop
  endfacet
  facet normal 1 -1.22461e-016 0
    outer loop
      vertex 30.5 61.65 7
      vertex 30.5 61.65 8.5
      vertex 30.5 57.65 7
    endloop
  endfacet
  facet normal -1 1.22461e-016 0
    outer loop
      vertex 20.5 57.65 8.5
      vertex 20.5 61.65 8.5
      vertex 20.5 57.65 7
    endloop
  endfacet
  facet normal -1 1.22461e-016 0
    outer loop
      vertex 20.5 57.65 7
      vertex 20.5 61.65 8.5
      vertex 20.5 61.65 7
    endloop
  endfacet
  facet normal -1.49966e-032 -1.22461e-016 1
    outer loop
      vertex 20.5 61.65 8.5
      vertex 20.5 57.65 8.5
      vertex 24.5 57.65 8.5
    endloop
  endfacet
  facet normal -1.49966e-032 -1.22461e-016 1
    outer loop
      vertex 24.5 61.65 8.5
      vertex 20.5 61.65 8.5
      vertex 24.5 57.65 8.5
    endloop
  endfacet
  facet normal -1.22461e-016 -1 -1.22461e-016
    outer loop
      vertex 24.5 57.65 8.5
      vertex 20.5 57.65 8.5
      vertex 20.5 57.65 7
    endloop
  endfacet
  facet normal -1.22461e-016 -1 -1.22461e-016
    outer loop
      vertex 24.5 57.65 7
      vertex 24.5 57.65 8.5
      vertex 20.5 57.65 7
    endloop
  endfacet
  facet normal 1.49966e-032 1.22461e-016 -1
    outer loop
      vertex 20.5 57.65 7
      vertex 20.5 61.65 7
      vertex 24.5 57.65 7
    endloop
  endfacet
  facet normal 1.49966e-032 1.22461e-016 -1
    outer loop
      vertex 24.5 57.65 7
      vertex 20.5 61.65 7
      vertex 24.5 61.65 7
    endloop
  endfacet
  facet normal 1.22461e-016 1 1.22461e-016
    outer loop
      vertex 20.5 61.65 8.5
      vertex 24.5 61.65 8.5
      vertex 20.5 61.65 7
    endloop
  endfacet
  facet normal 1.22461e-016 1 1.22461e-016
    outer loop
      vertex 20.5 61.65 7
      vertex 24.5 61.65 8.5
      vertex 24.5 61.65 7
    endloop
  endfacet
  facet normal 1 -1.22461e-016 0
    outer loop
      vertex 24.5 61.65 8.5
      vertex 24.5 57.65 8.5
      vertex 24.5 57.65 7
    endloop
  endfacet
  facet normal 1 -1.22461e-016 0
    outer loop
      vertex 24.5 61.65 7
      vertex 24.5 61.65 8.5
      vertex 24.5 57.65 7
    endloop
  endfacet
  facet normal -1 1.22461e-016 0
    outer loop
      vertex 14.5 57.65 8.5
      vertex 14.5 61.65 8.5
      vertex 14.5 57.65 7
    endloop
  endfacet
  facet normal -1 1.22461e-016 0
    outer loop
      vertex 14.5 57.65 7
      vertex 14.5 61.65 8.5
      vertex 14.5 61.65 7
    endloop
  endfacet
  facet normal -1.49966e-032 -1.22461e-016 1
    outer loop
      vertex 14.5 61.65 8.5
      vertex 14.5 57.65 8.5
      vertex 18.5 57.65 8.5
    endloop
  endfacet
  facet normal -1.49966e-032 -1.22461e-016 1
    outer loop
      vertex 18.5 61.65 8.5
      vertex 14.5 61.65 8.5
      vertex 18.5 57.65 8.5
    endloop
  endfacet
  facet normal -1.22461e-016 -1 -1.22461e-016
    outer loop
      vertex 18.5 57.65 8.5
      vertex 14.5 57.65 8.5
      vertex 14.5 57.65 7
    endloop
  endfacet
  facet normal -1.22461e-016 -1 -1.22461e-016
    outer loop
      vertex 18.5 57.65 7
      vertex 18.5 57.65 8.5
      vertex 14.5 57.65 7
    endloop
  endfacet
  facet normal 1.49966e-032 1.22461e-016 -1
    outer loop
      vertex 14.5 57.65 7
      vertex 14.5 61.65 7
      vertex 18.5 57.65 7
    endloop
  endfacet
  facet normal 1.49966e-032 1.22461e-016 -1
    outer loop
      vertex 18.5 57.65 7
      vertex 14.5 61.65 7
      vertex 18.5 61.65 7
    endloop
  endfacet
  facet normal 1.22461e-016 1 1.22461e-016
    outer loop
      vertex 14.5 61.65 8.5
      vertex 18.5 61.65 8.5
      vertex 14.5 61.65 7
    endloop
  endfacet
  facet normal 1.22461e-016 1 1.22461e-016
    outer loop
      vertex 14.5 61.65 7
      vertex 18.5 61.65 8.5
      vertex 18.5 61.65 7
    endloop
  endfacet
  facet normal 1 -1.22461e-016 0
    outer loop
      vertex 18.5 61.65 8.5
      vertex 18.5 57.65 8.5
      vertex 18.5 57.65 7
    endloop
  endfacet
  facet normal 1 -1.22461e-016 0
    outer loop
      vertex 18.5 61.65 7
      vertex 18.5 61.65 8.5
      vertex 18.5 57.65 7
    endloop
  endfacet
endsolid OpenSCAD_Model
