solid OpenSCAD_Model
  facet normal 0 0 -1
    outer loop
      vertex -2.5 3 0
      vertex -2.5 8.75 0
      vertex -1.927 1.237 0
    endloop
  endfacet
  facet normal 0 0 -1
    outer loop
      vertex -1.927 1.237 0
      vertex -2.5 8.75 0
      vertex 0 20.5 0
    endloop
  endfacet
  facet normal 0 0 -1
    outer loop
      vertex -1.927 1.237 0
      vertex 0 20.5 0
      vertex 0.573 22.263 0
    endloop
  endfacet
  facet normal 0 0 -1
    outer loop
      vertex -1.927 1.237 0
      vertex 0.573 22.263 0
      vertex 12.7556 56.9411 0
    endloop
  endfacet
  facet normal 0 0 -1
    outer loop
      vertex -1.927 1.237 0
      vertex 12.7556 56.9411 0
      vertex 13.5048 58.75 0
    endloop
  endfacet
  facet normal 0 0 -1
    outer loop
      vertex -1.927 1.237 0
      vertex 13.5048 58.75 0
      vertex 14.6967 60.3033 0
    endloop
  endfacet
  facet normal 0 0 -1
    outer loop
      vertex -1.927 1.237 0
      vertex 14.6967 60.3033 0
      vertex 16.25 61.4952 0
    endloop
  endfacet
  facet normal 0 0 -1
    outer loop
      vertex 15.7868 57.8283 0
      vertex 16.25 61.4952 0
      vertex 18.0589 62.2444 0
    endloop
  endfacet
  facet normal 0 0 -1
    outer loop
      vertex 17.25 58.8105 0
      vertex 20 62.5 0
      vertex 19.0449 59.3332 0
    endloop
  endfacet
  facet normal 0 0 -1
    outer loop
      vertex 19.0449 59.3332 0
      vertex 21.9411 62.2444 0
      vertex 20.9551 59.3332 0
    endloop
  endfacet
  facet normal 0 0 -1
    outer loop
      vertex 22.75 58.8105 0
      vertex 23.75 61.4952 0
      vertex 25.3033 60.3033 0
    endloop
  endfacet
  facet normal 0 0 -1
    outer loop
      vertex 24.2132 57.8283 0
      vertex 25.3033 60.3033 0
      vertex 26.4952 58.75 0
    endloop
  endfacet
  facet normal 0 0 -1
    outer loop
      vertex 25.5 55 0
      vertex 26.4952 58.75 0
      vertex 27.2444 56.9411 0
    endloop
  endfacet
  facet normal 0 0 -1
    outer loop
      vertex 34.427 21.513 0
      vertex 27.2444 56.9411 0
      vertex 39.427 22.263 0
    endloop
  endfacet
  facet normal 0 0 -1
    outer loop
      vertex 35 19.75 0
      vertex 39.427 22.263 0
      vertex 40 20.5 0
    endloop
  endfacet
  facet normal 0 0 -1
    outer loop
      vertex 37.5 8 0
      vertex 40 20.5 0
      vertex 42.5 8.75 0
    endloop
  endfacet
  facet normal 0 0 -1
    outer loop
      vertex 35.427 5.147 0
      vertex 42.5 8.75 0
      vertex 42.5 3 0
    endloop
  endfacet
  facet normal 0 0 -1
    outer loop
      vertex -1.927 1.237 0
      vertex 42.5 3 0
      vertex 41.927 1.237 0
    endloop
  endfacet
  facet normal 0 0 -1
    outer loop
      vertex -1.927 1.237 0
      vertex 41.927 1.237 0
      vertex 40.427 0.147 0
    endloop
  endfacet
  facet normal 0 0 -1
    outer loop
      vertex -1.927 1.237 0
      vertex 40.427 0.147 0
      vertex -0.427 0.147 0
    endloop
  endfacet
  facet normal 0 0 -1
    outer loop
      vertex 2.5 8 0
      vertex -1.927 1.237 0
      vertex 2.5 10.875 0
    endloop
  endfacet
  facet normal 0 0 -1
    outer loop
      vertex 35.427 5.147 0
      vertex -1.927 1.237 0
      vertex 4.573 5.147 0
    endloop
  endfacet
  facet normal 0 0 -1
    outer loop
      vertex -1.927 1.237 0
      vertex 2.5 8 0
      vertex 3.073 6.237 0
    endloop
  endfacet
  facet normal 0 0 -1
    outer loop
      vertex 25.5 55 0
      vertex 27.2444 56.9411 0
      vertex 25.1683 53.4951 0
    endloop
  endfacet
  facet normal 0 0 -1
    outer loop
      vertex -1.927 1.237 0
      vertex 3.073 6.237 0
      vertex 4.573 5.147 0
    endloop
  endfacet
  facet normal 0 0 -1
    outer loop
      vertex 7.073 22.603 0
      vertex 27.2444 56.9411 0
      vertex 32.927 22.603 0
    endloop
  endfacet
  facet normal 0 0 -1
    outer loop
      vertex 36.927 6.237 0
      vertex 42.5 8.75 0
      vertex 35.427 5.147 0
    endloop
  endfacet
  facet normal 0 0 -1
    outer loop
      vertex -1.927 1.237 0
      vertex 35.427 5.147 0
      vertex 42.5 3 0
    endloop
  endfacet
  facet normal 0 0 -1
    outer loop
      vertex 35 19.75 0
      vertex 40 20.5 0
      vertex 37.5 10.875 0
    endloop
  endfacet
  facet normal 0 0 -1
    outer loop
      vertex 37.5 10.875 0
      vertex 40 20.5 0
      vertex 37.5 8 0
    endloop
  endfacet
  facet normal 0 0 -1
    outer loop
      vertex 7.073 22.603 0
      vertex 22.75 51.1895 0
      vertex 24.2132 52.1717 0
    endloop
  endfacet
  facet normal 0 0 -1
    outer loop
      vertex 7.073 22.603 0
      vertex 25.1683 53.4951 0
      vertex 27.2444 56.9411 0
    endloop
  endfacet
  facet normal 0 0 -1
    outer loop
      vertex 7.073 22.603 0
      vertex 24.2132 52.1717 0
      vertex 25.1683 53.4951 0
    endloop
  endfacet
  facet normal 0 0 -1
    outer loop
      vertex 32.927 22.603 0
      vertex 27.2444 56.9411 0
      vertex 34.427 21.513 0
    endloop
  endfacet
  facet normal 0 0 -1
    outer loop
      vertex 15.7868 52.1717 0
      vertex -1.927 1.237 0
      vertex 14.8317 53.4951 0
    endloop
  endfacet
  facet normal 0 0 -1
    outer loop
      vertex -1.927 1.237 0
      vertex 5.573 21.513 0
      vertex 5 19.75 0
    endloop
  endfacet
  facet normal 0 0 -1
    outer loop
      vertex -1.927 1.237 0
      vertex 14.5 55 0
      vertex 14.8317 53.4951 0
    endloop
  endfacet
  facet normal 0 0 -1
    outer loop
      vertex 15.7868 57.8283 0
      vertex 18.0589 62.2444 0
      vertex 17.25 58.8105 0
    endloop
  endfacet
  facet normal 0 0 -1
    outer loop
      vertex 17.25 58.8105 0
      vertex 18.0589 62.2444 0
      vertex 20 62.5 0
    endloop
  endfacet
  facet normal 0 0 -1
    outer loop
      vertex 20.9551 59.3332 0
      vertex 23.75 61.4952 0
      vertex 22.75 58.8105 0
    endloop
  endfacet
  facet normal 0 0 -1
    outer loop
      vertex 19.0449 59.3332 0
      vertex 20 62.5 0
      vertex 21.9411 62.2444 0
    endloop
  endfacet
  facet normal 0 0 -1
    outer loop
      vertex 37.5 8 0
      vertex 42.5 8.75 0
      vertex 36.927 6.237 0
    endloop
  endfacet
  facet normal 0 0 -1
    outer loop
      vertex 34.427 21.513 0
      vertex 39.427 22.263 0
      vertex 35 19.75 0
    endloop
  endfacet
  facet normal 0 0 -1
    outer loop
      vertex 7.073 22.603 0
      vertex 20.9551 50.6668 0
      vertex 22.75 51.1895 0
    endloop
  endfacet
  facet normal 0 0 -1
    outer loop
      vertex 25.1683 56.5049 0
      vertex 26.4952 58.75 0
      vertex 25.5 55 0
    endloop
  endfacet
  facet normal 0 0 -1
    outer loop
      vertex 24.2132 57.8283 0
      vertex 26.4952 58.75 0
      vertex 25.1683 56.5049 0
    endloop
  endfacet
  facet normal 0 0 -1
    outer loop
      vertex 22.75 58.8105 0
      vertex 25.3033 60.3033 0
      vertex 24.2132 57.8283 0
    endloop
  endfacet
  facet normal 0 0 -1
    outer loop
      vertex 20.9551 50.6668 0
      vertex 7.073 22.603 0
      vertex 19.0449 50.6668 0
    endloop
  endfacet
  facet normal 0 0 -1
    outer loop
      vertex 19.0449 50.6668 0
      vertex 5.573 21.513 0
      vertex 17.25 51.1895 0
    endloop
  endfacet
  facet normal 0 0 -1
    outer loop
      vertex 19.0449 50.6668 0
      vertex 7.073 22.603 0
      vertex 5.573 21.513 0
    endloop
  endfacet
  facet normal 0 0 -1
    outer loop
      vertex 17.25 51.1895 0
      vertex 5.573 21.513 0
      vertex 15.7868 52.1717 0
    endloop
  endfacet
  facet normal 0 0 -1
    outer loop
      vertex 5.573 21.513 0
      vertex -1.927 1.237 0
      vertex 15.7868 52.1717 0
    endloop
  endfacet
  facet normal 0 0 -1
    outer loop
      vertex 14.8317 56.5049 0
      vertex 16.25 61.4952 0
      vertex 15.7868 57.8283 0
    endloop
  endfacet
  facet normal 0 0 -1
    outer loop
      vertex -1.927 1.237 0
      vertex 16.25 61.4952 0
      vertex 14.8317 56.5049 0
    endloop
  endfacet
  facet normal 0 0 -1
    outer loop
      vertex -1.927 1.237 0
      vertex 14.8317 56.5049 0
      vertex 14.5 55 0
    endloop
  endfacet
  facet normal 0 0 -1
    outer loop
      vertex 2.5 10.875 0
      vertex -1.927 1.237 0
      vertex 5 19.75 0
    endloop
  endfacet
  facet normal 0 0 -1
    outer loop
      vertex 20.9551 59.3332 0
      vertex 21.9411 62.2444 0
      vertex 23.75 61.4952 0
    endloop
  endfacet
  facet normal -1 0 0
    outer loop
      vertex -2.5 3 0
      vertex -2.5 3 7
      vertex -2.5 8.75 0
    endloop
  endfacet
  facet normal -1 0 0
    outer loop
      vertex -2.5 8.75 0
      vertex -2.5 3 7
      vertex -2.5 8.75 7
    endloop
  endfacet
  facet normal -0.95103 -0.309098 0
    outer loop
      vertex -2.5 3 0
      vertex -1.927 1.237 0
      vertex -2.5 3 7
    endloop
  endfacet
  facet normal -0.95103 -0.309098 0
    outer loop
      vertex -2.5 3 7
      vertex -1.927 1.237 0
      vertex -1.927 1.237 7
    endloop
  endfacet
  facet normal -0.587851 -0.808969 0
    outer loop
      vertex -1.927 1.237 7
      vertex -1.927 1.237 0
      vertex -0.427 0.147 0
    endloop
  endfacet
  facet normal -0.587851 -0.808969 0
    outer loop
      vertex -0.427 0.147 7
      vertex -1.927 1.237 7
      vertex -0.427 0.147 0
    endloop
  endfacet
  facet normal 0 -1 0
    outer loop
      vertex -0.427 0.147 7
      vertex -0.427 0.147 0
      vertex 40.427 0.147 0
    endloop
  endfacet
  facet normal 0 -1 0
    outer loop
      vertex 40.427 0.147 7
      vertex -0.427 0.147 7
      vertex 40.427 0.147 0
    endloop
  endfacet
  facet normal 0.587851 -0.808969 0
    outer loop
      vertex 40.427 0.147 7
      vertex 40.427 0.147 0
      vertex 41.927 1.237 0
    endloop
  endfacet
  facet normal 0.587851 -0.808969 0
    outer loop
      vertex 41.927 1.237 7
      vertex 40.427 0.147 7
      vertex 41.927 1.237 0
    endloop
  endfacet
  facet normal 0.95103 -0.309098 0
    outer loop
      vertex 41.927 1.237 7
      vertex 41.927 1.237 0
      vertex 42.5 3 0
    endloop
  endfacet
  facet normal 0.95103 -0.309098 0
    outer loop
      vertex 42.5 3 7
      vertex 41.927 1.237 7
      vertex 42.5 3 0
    endloop
  endfacet
  facet normal 1 0 0
    outer loop
      vertex 42.5 3 7
      vertex 42.5 3 0
      vertex 42.5 8.75 0
    endloop
  endfacet
  facet normal 1 0 0
    outer loop
      vertex 42.5 8.75 7
      vertex 42.5 3 7
      vertex 42.5 8.75 0
    endloop
  endfacet
  facet normal 0.978106 0.208108 0
    outer loop
      vertex 42.5 8.75 0
      vertex 40 20.5 0
      vertex 40 20.5 7
    endloop
  endfacet
  facet normal 0.978106 0.208108 0
    outer loop
      vertex 42.5 8.75 7
      vertex 42.5 8.75 0
      vertex 40 20.5 7
    endloop
  endfacet
  facet normal 0.95103 0.309098 0
    outer loop
      vertex 40 20.5 0
      vertex 39.427 22.263 0
      vertex 39.427 22.263 7
    endloop
  endfacet
  facet normal 0.95103 0.309098 0
    outer loop
      vertex 40 20.5 7
      vertex 40 20.5 0
      vertex 39.427 22.263 7
    endloop
  endfacet
  facet normal 0.943474 0.331446 0
    outer loop
      vertex 39.427 22.263 0
      vertex 27.2444 56.9411 0
      vertex 27.2444 56.9411 7
    endloop
  endfacet
  facet normal 0.943474 0.331446 0
    outer loop
      vertex 39.427 22.263 7
      vertex 39.427 22.263 0
      vertex 27.2444 56.9411 7
    endloop
  endfacet
  facet normal 0.92388 0.382683 0
    outer loop
      vertex 27.2444 56.9411 0
      vertex 26.4952 58.75 0
      vertex 26.4952 58.75 7
    endloop
  endfacet
  facet normal 0.92388 0.382683 0
    outer loop
      vertex 27.2444 56.9411 7
      vertex 27.2444 56.9411 0
      vertex 26.4952 58.75 7
    endloop
  endfacet
  facet normal 0.793353 0.608762 0
    outer loop
      vertex 26.4952 58.75 0
      vertex 25.3033 60.3033 0
      vertex 25.3033 60.3033 7
    endloop
  endfacet
  facet normal 0.793353 0.608762 0
    outer loop
      vertex 26.4952 58.75 7
      vertex 26.4952 58.75 0
      vertex 25.3033 60.3033 7
    endloop
  endfacet
  facet normal 0.608762 0.793353 0
    outer loop
      vertex 23.75 61.4952 0
      vertex 23.75 61.4952 7
      vertex 25.3033 60.3033 0
    endloop
  endfacet
  facet normal 0.608762 0.793353 0
    outer loop
      vertex 25.3033 60.3033 0
      vertex 23.75 61.4952 7
      vertex 25.3033 60.3033 7
    endloop
  endfacet
  facet normal 0.382683 0.92388 0
    outer loop
      vertex 21.9411 62.2444 0
      vertex 21.9411 62.2444 7
      vertex 23.75 61.4952 0
    endloop
  endfacet
  facet normal 0.382683 0.92388 0
    outer loop
      vertex 23.75 61.4952 0
      vertex 21.9411 62.2444 7
      vertex 23.75 61.4952 7
    endloop
  endfacet
  facet normal 0.130526 0.991445 0
    outer loop
      vertex 20 62.5 0
      vertex 20 62.5 7
      vertex 21.9411 62.2444 0
    endloop
  endfacet
  facet normal 0.130526 0.991445 0
    outer loop
      vertex 21.9411 62.2444 0
      vertex 20 62.5 7
      vertex 21.9411 62.2444 7
    endloop
  endfacet
  facet normal -0.130526 0.991445 0
    outer loop
      vertex 18.0589 62.2444 0
      vertex 18.0589 62.2444 7
      vertex 20 62.5 0
    endloop
  endfacet
  facet normal -0.130526 0.991445 0
    outer loop
      vertex 20 62.5 0
      vertex 18.0589 62.2444 7
      vertex 20 62.5 7
    endloop
  endfacet
  facet normal -0.382683 0.92388 0
    outer loop
      vertex 16.25 61.4952 0
      vertex 16.25 61.4952 7
      vertex 18.0589 62.2444 0
    endloop
  endfacet
  facet normal -0.382683 0.92388 0
    outer loop
      vertex 18.0589 62.2444 0
      vertex 16.25 61.4952 7
      vertex 18.0589 62.2444 7
    endloop
  endfacet
  facet normal -0.608762 0.793353 0
    outer loop
      vertex 14.6967 60.3033 0
      vertex 14.6967 60.3033 7
      vertex 16.25 61.4952 0
    endloop
  endfacet
  facet normal -0.608762 0.793353 0
    outer loop
      vertex 16.25 61.4952 0
      vertex 14.6967 60.3033 7
      vertex 16.25 61.4952 7
    endloop
  endfacet
  facet normal -0.793353 0.608762 0
    outer loop
      vertex 13.5048 58.75 0
      vertex 13.5048 58.75 7
      vertex 14.6967 60.3033 0
    endloop
  endfacet
  facet normal -0.793353 0.608762 0
    outer loop
      vertex 14.6967 60.3033 0
      vertex 13.5048 58.75 7
      vertex 14.6967 60.3033 7
    endloop
  endfacet
  facet normal -0.92388 0.382683 0
    outer loop
      vertex 12.7556 56.9411 0
      vertex 12.7556 56.9411 7
      vertex 13.5048 58.75 0
    endloop
  endfacet
  facet normal -0.92388 0.382683 0
    outer loop
      vertex 13.5048 58.75 0
      vertex 12.7556 56.9411 7
      vertex 13.5048 58.75 7
    endloop
  endfacet
  facet normal -0.943474 0.331446 0
    outer loop
      vertex 0.573 22.263 0
      vertex 0.573 22.263 7
      vertex 12.7556 56.9411 0
    endloop
  endfacet
  facet normal -0.943474 0.331446 0
    outer loop
      vertex 12.7556 56.9411 0
      vertex 0.573 22.263 7
      vertex 12.7556 56.9411 7
    endloop
  endfacet
  facet normal -0.95103 0.309098 0
    outer loop
      vertex 0 20.5 0
      vertex 0 20.5 7
      vertex 0.573 22.263 0
    endloop
  endfacet
  facet normal -0.95103 0.309098 0
    outer loop
      vertex 0.573 22.263 0
      vertex 0 20.5 7
      vertex 0.573 22.263 7
    endloop
  endfacet
  facet normal -0.978106 0.208108 0
    outer loop
      vertex -2.5 8.75 0
      vertex -2.5 8.75 7
      vertex 0 20.5 0
    endloop
  endfacet
  facet normal -0.978106 0.208108 0
    outer loop
      vertex 0 20.5 0
      vertex -2.5 8.75 7
      vertex 0 20.5 7
    endloop
  endfacet
  facet normal 0.96254 -0.271138 0
    outer loop
      vertex 5 19.75 0
      vertex 5 19.75 7
      vertex 2.5 10.875 7
    endloop
  endfacet
  facet normal 0.96254 -0.271138 0
    outer loop
      vertex 2.5 10.875 0
      vertex 5 19.75 0
      vertex 2.5 10.875 7
    endloop
  endfacet
  facet normal 1 0 0
    outer loop
      vertex 2.5 10.875 0
      vertex 2.5 10.875 7
      vertex 2.5 8 7
    endloop
  endfacet
  facet normal 1 0 0
    outer loop
      vertex 2.5 8 0
      vertex 2.5 10.875 0
      vertex 2.5 8 7
    endloop
  endfacet
  facet normal 0.95103 -0.309098 0
    outer loop
      vertex 5.573 21.513 0
      vertex 5.573 21.513 7
      vertex 5 19.75 7
    endloop
  endfacet
  facet normal 0.95103 -0.309098 0
    outer loop
      vertex 5 19.75 0
      vertex 5.573 21.513 0
      vertex 5 19.75 7
    endloop
  endfacet
  facet normal 0.587851 -0.808969 0
    outer loop
      vertex 7.073 22.603 0
      vertex 7.073 22.603 7
      vertex 5.573 21.513 7
    endloop
  endfacet
  facet normal 0.587851 -0.808969 0
    outer loop
      vertex 5.573 21.513 0
      vertex 7.073 22.603 0
      vertex 5.573 21.513 7
    endloop
  endfacet
  facet normal 0 -1 0
    outer loop
      vertex 28.7961 22.603 4.45
      vertex 32.927 22.603 7
      vertex 7.073 22.603 7
    endloop
  endfacet
  facet normal 0 -1 0
    outer loop
      vertex 7.073 22.603 0
      vertex 11.2039 22.603 4.45
      vertex 7.073 22.603 7
    endloop
  endfacet
  facet normal 0 -1 0
    outer loop
      vertex 32.927 22.603 0
      vertex 32.927 22.603 7
      vertex 28.7961 22.603 4.45
    endloop
  endfacet
  facet normal 0 -1 0
    outer loop
      vertex 28.7961 22.603 2.55
      vertex 11.2039 22.603 2.55
      vertex 32.927 22.603 0
    endloop
  endfacet
  facet normal 0 -1 0
    outer loop
      vertex 32.927 22.603 0
      vertex 28.7961 22.603 4.45
      vertex 28.7961 22.603 2.55
    endloop
  endfacet
  facet normal 0 -1 0
    outer loop
      vertex 7.073 22.603 0
      vertex 11.2039 22.603 2.55
      vertex 11.2039 22.603 4.45
    endloop
  endfacet
  facet normal 0 -1 0
    outer loop
      vertex 7.073 22.603 0
      vertex 32.927 22.603 0
      vertex 11.2039 22.603 2.55
    endloop
  endfacet
  facet normal 0 -1 0
    outer loop
      vertex 11.2039 22.603 4.45
      vertex 28.7961 22.603 4.45
      vertex 7.073 22.603 7
    endloop
  endfacet
  facet normal -0.587851 -0.808969 0
    outer loop
      vertex 34.427 21.513 0
      vertex 34.427 21.513 7
      vertex 32.927 22.603 7
    endloop
  endfacet
  facet normal -0.587851 -0.808969 0
    outer loop
      vertex 32.927 22.603 0
      vertex 34.427 21.513 0
      vertex 32.927 22.603 7
    endloop
  endfacet
  facet normal -0.95103 -0.309098 0
    outer loop
      vertex 35 19.75 7
      vertex 34.427 21.513 7
      vertex 35 19.75 0
    endloop
  endfacet
  facet normal -0.95103 -0.309098 0
    outer loop
      vertex 35 19.75 0
      vertex 34.427 21.513 7
      vertex 34.427 21.513 0
    endloop
  endfacet
  facet normal -0.96254 -0.271138 0
    outer loop
      vertex 37.5 10.875 7
      vertex 35 19.75 7
      vertex 37.5 10.875 0
    endloop
  endfacet
  facet normal -0.96254 -0.271138 0
    outer loop
      vertex 37.5 10.875 0
      vertex 35 19.75 7
      vertex 35 19.75 0
    endloop
  endfacet
  facet normal -1 0 0
    outer loop
      vertex 37.5 10.875 7
      vertex 37.5 10.875 0
      vertex 37.5 8 7
    endloop
  endfacet
  facet normal -1 0 0
    outer loop
      vertex 37.5 8 7
      vertex 37.5 10.875 0
      vertex 37.5 8 0
    endloop
  endfacet
  facet normal -0.95103 0.309098 0
    outer loop
      vertex 37.5 8 7
      vertex 37.5 8 0
      vertex 36.927 6.237 7
    endloop
  endfacet
  facet normal -0.95103 0.309098 0
    outer loop
      vertex 36.927 6.237 7
      vertex 37.5 8 0
      vertex 36.927 6.237 0
    endloop
  endfacet
  facet normal -0.587851 0.808969 0
    outer loop
      vertex 36.927 6.237 7
      vertex 36.927 6.237 0
      vertex 35.427 5.147 7
    endloop
  endfacet
  facet normal -0.587851 0.808969 0
    outer loop
      vertex 35.427 5.147 7
      vertex 36.927 6.237 0
      vertex 35.427 5.147 0
    endloop
  endfacet
  facet normal 0 1 0
    outer loop
      vertex 35.427 5.147 7
      vertex 35.427 5.147 0
      vertex 4.573 5.147 7
    endloop
  endfacet
  facet normal 0 1 0
    outer loop
      vertex 4.573 5.147 7
      vertex 35.427 5.147 0
      vertex 4.573 5.147 0
    endloop
  endfacet
  facet normal 0.587851 0.808969 0
    outer loop
      vertex 4.573 5.147 7
      vertex 4.573 5.147 0
      vertex 3.073 6.237 7
    endloop
  endfacet
  facet normal 0.587851 0.808969 0
    outer loop
      vertex 3.073 6.237 7
      vertex 4.573 5.147 0
      vertex 3.073 6.237 0
    endloop
  endfacet
  facet normal 0.95103 0.309098 0
    outer loop
      vertex 2.5 8 7
      vertex 3.073 6.237 7
      vertex 3.073 6.237 0
    endloop
  endfacet
  facet normal 0.95103 0.309098 0
    outer loop
      vertex 2.5 8 0
      vertex 2.5 8 7
      vertex 3.073 6.237 0
    endloop
  endfacet
  facet normal 0.976561 -0.215243 0
    outer loop
      vertex 14.8317 56.5049 0
      vertex 14.8317 56.5049 7
      vertex 14.5 55 7
    endloop
  endfacet
  facet normal 0.976561 -0.215243 0
    outer loop
      vertex 14.5 55 0
      vertex 14.8317 56.5049 0
      vertex 14.5 55 7
    endloop
  endfacet
  facet normal 0.976561 0.215243 0
    outer loop
      vertex 14.5 55 7
      vertex 14.8317 53.4951 7
      vertex 14.8317 53.4951 0
    endloop
  endfacet
  facet normal 0.976561 0.215243 0
    outer loop
      vertex 14.5 55 0
      vertex 14.5 55 7
      vertex 14.8317 53.4951 0
    endloop
  endfacet
  facet normal 0.810885 -0.585206 0
    outer loop
      vertex 15.7868 57.8283 0
      vertex 15.7868 57.8283 7
      vertex 14.8317 56.5049 7
    endloop
  endfacet
  facet normal 0.810885 -0.585206 0
    outer loop
      vertex 14.8317 56.5049 0
      vertex 15.7868 57.8283 0
      vertex 14.8317 56.5049 7
    endloop
  endfacet
  facet normal 0.557349 -0.830278 0
    outer loop
      vertex 17.25 58.8105 0
      vertex 17.25 58.8105 7
      vertex 15.7868 57.8283 7
    endloop
  endfacet
  facet normal 0.557349 -0.830278 0
    outer loop
      vertex 15.7868 57.8283 0
      vertex 17.25 58.8105 0
      vertex 15.7868 57.8283 7
    endloop
  endfacet
  facet normal 0.279566 -0.960126 0
    outer loop
      vertex 19.0449 59.3332 0
      vertex 19.0449 59.3332 7
      vertex 17.25 58.8105 7
    endloop
  endfacet
  facet normal 0.279566 -0.960126 0
    outer loop
      vertex 17.25 58.8105 0
      vertex 19.0449 59.3332 0
      vertex 17.25 58.8105 7
    endloop
  endfacet
  facet normal 0 -1 0
    outer loop
      vertex 20.9551 59.3332 0
      vertex 20.9551 59.3332 7
      vertex 19.0449 59.3332 7
    endloop
  endfacet
  facet normal 0 -1 0
    outer loop
      vertex 19.0449 59.3332 0
      vertex 20.9551 59.3332 0
      vertex 19.0449 59.3332 7
    endloop
  endfacet
  facet normal -0.279566 -0.960126 0
    outer loop
      vertex 22.75 58.8105 0
      vertex 22.75 58.8105 7
      vertex 20.9551 59.3332 7
    endloop
  endfacet
  facet normal -0.279566 -0.960126 0
    outer loop
      vertex 20.9551 59.3332 0
      vertex 22.75 58.8105 0
      vertex 20.9551 59.3332 7
    endloop
  endfacet
  facet normal -0.557349 -0.830278 0
    outer loop
      vertex 24.2132 57.8283 0
      vertex 24.2132 57.8283 7
      vertex 22.75 58.8105 7
    endloop
  endfacet
  facet normal -0.557349 -0.830278 0
    outer loop
      vertex 22.75 58.8105 0
      vertex 24.2132 57.8283 0
      vertex 22.75 58.8105 7
    endloop
  endfacet
  facet normal -0.810885 -0.585206 0
    outer loop
      vertex 25.1683 56.5049 7
      vertex 24.2132 57.8283 7
      vertex 25.1683 56.5049 0
    endloop
  endfacet
  facet normal -0.810885 -0.585206 0
    outer loop
      vertex 25.1683 56.5049 0
      vertex 24.2132 57.8283 7
      vertex 24.2132 57.8283 0
    endloop
  endfacet
  facet normal -0.976561 -0.215243 0
    outer loop
      vertex 25.5 55 7
      vertex 25.1683 56.5049 7
      vertex 25.5 55 0
    endloop
  endfacet
  facet normal -0.976561 -0.215243 0
    outer loop
      vertex 25.5 55 0
      vertex 25.1683 56.5049 7
      vertex 25.1683 56.5049 0
    endloop
  endfacet
  facet normal -0.976561 0.215243 0
    outer loop
      vertex 25.5 55 7
      vertex 25.5 55 0
      vertex 25.1683 53.4951 7
    endloop
  endfacet
  facet normal -0.976561 0.215243 0
    outer loop
      vertex 25.1683 53.4951 7
      vertex 25.5 55 0
      vertex 25.1683 53.4951 0
    endloop
  endfacet
  facet normal -0.810885 0.585206 0
    outer loop
      vertex 25.1683 53.4951 7
      vertex 25.1683 53.4951 0
      vertex 24.2132 52.1717 7
    endloop
  endfacet
  facet normal -0.810885 0.585206 0
    outer loop
      vertex 24.2132 52.1717 7
      vertex 25.1683 53.4951 0
      vertex 24.2132 52.1717 0
    endloop
  endfacet
  facet normal -0.557349 0.830278 0
    outer loop
      vertex 24.2132 52.1717 7
      vertex 24.2132 52.1717 0
      vertex 22.75 51.1895 7
    endloop
  endfacet
  facet normal -0.557349 0.830278 0
    outer loop
      vertex 22.75 51.1895 7
      vertex 24.2132 52.1717 0
      vertex 22.75 51.1895 0
    endloop
  endfacet
  facet normal -0.279566 0.960126 0
    outer loop
      vertex 22.75 51.1895 7
      vertex 22.75 51.1895 0
      vertex 20.9551 50.6668 7
    endloop
  endfacet
  facet normal -0.279566 0.960126 0
    outer loop
      vertex 20.9551 50.6668 7
      vertex 22.75 51.1895 0
      vertex 20.9551 50.6668 0
    endloop
  endfacet
  facet normal 0 1 0
    outer loop
      vertex 20.9551 50.6668 7
      vertex 20.9551 50.6668 0
      vertex 19.0449 50.6668 7
    endloop
  endfacet
  facet normal 0 1 0
    outer loop
      vertex 19.0449 50.6668 7
      vertex 20.9551 50.6668 0
      vertex 19.0449 50.6668 0
    endloop
  endfacet
  facet normal 0.279566 0.960126 0
    outer loop
      vertex 19.0449 50.6668 7
      vertex 19.0449 50.6668 0
      vertex 17.25 51.1895 7
    endloop
  endfacet
  facet normal 0.279566 0.960126 0
    outer loop
      vertex 17.25 51.1895 7
      vertex 19.0449 50.6668 0
      vertex 17.25 51.1895 0
    endloop
  endfacet
  facet normal 0.557349 0.830278 0
    outer loop
      vertex 17.25 51.1895 7
      vertex 17.25 51.1895 0
      vertex 15.7868 52.1717 7
    endloop
  endfacet
  facet normal 0.557349 0.830278 0
    outer loop
      vertex 15.7868 52.1717 7
      vertex 17.25 51.1895 0
      vertex 15.7868 52.1717 0
    endloop
  endfacet
  facet normal 0.810885 0.585206 0
    outer loop
      vertex 14.8317 53.4951 7
      vertex 15.7868 52.1717 7
      vertex 15.7868 52.1717 0
    endloop
  endfacet
  facet normal 0.810885 0.585206 0
    outer loop
      vertex 14.8317 53.4951 0
      vertex 14.8317 53.4951 7
      vertex 15.7868 52.1717 0
    endloop
  endfacet
  facet normal 0 0 1
    outer loop
      vertex -2.5 8.75 7
      vertex -2.5 3 7
      vertex -1.927 1.237 7
    endloop
  endfacet
  facet normal 0 0 1
    outer loop
      vertex 4.573 5.147 7
      vertex -2.5 8.75 7
      vertex -0.427 0.147 7
    endloop
  endfacet
  facet normal 0 0 1
    outer loop
      vertex -0.427 0.147 7
      vertex -2.5 8.75 7
      vertex -1.927 1.237 7
    endloop
  endfacet
  facet normal 0 0 1
    outer loop
      vertex 37.5 10.875 7
      vertex 37.5 8 7
      vertex 42.5 8.75 7
    endloop
  endfacet
  facet normal 0 0 1
    outer loop
      vertex 17 35.5 7
      vertex 5.573 21.513 7
      vertex 7.073 22.603 7
    endloop
  endfacet
  facet normal 0 0 1
    outer loop
      vertex 25.5 55 7
      vertex 25.1683 53.4951 7
      vertex 27.2444 56.9411 7
    endloop
  endfacet
  facet normal 0 0 1
    outer loop
      vertex 13 39.5 7
      vertex 13 40.5 7
      vertex -2.5 8.75 7
    endloop
  endfacet
  facet normal 0 0 1
    outer loop
      vertex 25.1683 56.5049 7
      vertex 25.5 55 7
      vertex 26.4952 58.75 7
    endloop
  endfacet
  facet normal 0 0 1
    outer loop
      vertex 13 49.5 7
      vertex 17.25 51.1895 7
      vertex 15.7868 52.1717 7
    endloop
  endfacet
  facet normal 0 0 1
    outer loop
      vertex 14.6967 60.3033 7
      vertex -2.5 8.75 7
      vertex 16.25 61.4952 7
    endloop
  endfacet
  facet normal 0 0 1
    outer loop
      vertex 13.5048 58.75 7
      vertex -2.5 8.75 7
      vertex 14.6967 60.3033 7
    endloop
  endfacet
  facet normal 0 0 1
    outer loop
      vertex 12.7556 56.9411 7
      vertex -2.5 8.75 7
      vertex 13.5048 58.75 7
    endloop
  endfacet
  facet normal 0 0 1
    outer loop
      vertex 0.573 22.263 7
      vertex -2.5 8.75 7
      vertex 12.7556 56.9411 7
    endloop
  endfacet
  facet normal 0 0 1
    outer loop
      vertex 0 20.5 7
      vertex -2.5 8.75 7
      vertex 0.573 22.263 7
    endloop
  endfacet
  facet normal 0 0 1
    outer loop
      vertex 27 30.5 7
      vertex 23 30.5 7
      vertex 27 29.5 7
    endloop
  endfacet
  facet normal 0 0 1
    outer loop
      vertex 5.573 21.513 7
      vertex 13 35.5 7
      vertex -2.5 8.75 7
    endloop
  endfacet
  facet normal 0 0 1
    outer loop
      vertex 35 19.75 7
      vertex 37.5 10.875 7
      vertex 40 20.5 7
    endloop
  endfacet
  facet normal 0 0 1
    outer loop
      vertex 5 19.75 7
      vertex -2.5 8.75 7
      vertex 2.5 10.875 7
    endloop
  endfacet
  facet normal 0 0 1
    outer loop
      vertex 5.573 21.513 7
      vertex -2.5 8.75 7
      vertex 5 19.75 7
    endloop
  endfacet
  facet normal 0 0 1
    outer loop
      vertex 13 35.5 7
      vertex 13 39.5 7
      vertex -2.5 8.75 7
    endloop
  endfacet
  facet normal 0 0 1
    outer loop
      vertex 18 39.5 7
      vertex 23 44.5 7
      vertex 23 45.5 7
    endloop
  endfacet
  facet normal 0 0 1
    outer loop
      vertex 27.2444 56.9411 7
      vertex 32.927 22.603 7
      vertex 39.427 22.263 7
    endloop
  endfacet
  facet normal 0 0 1
    outer loop
      vertex 32.927 22.603 7
      vertex 34.427 21.513 7
      vertex 39.427 22.263 7
    endloop
  endfacet
  facet normal 0 0 1
    outer loop
      vertex 39.427 22.263 7
      vertex 35 19.75 7
      vertex 40 20.5 7
    endloop
  endfacet
  facet normal 0 0 1
    outer loop
      vertex 23 29.5 7
      vertex 27 29.5 7
      vertex 23 30.5 7
    endloop
  endfacet
  facet normal 0 0 1
    outer loop
      vertex 40 20.5 7
      vertex 37.5 10.875 7
      vertex 42.5 8.75 7
    endloop
  endfacet
  facet normal 0 0 1
    outer loop
      vertex 17 40.5 7
      vertex 13 40.5 7
      vertex 13 39.5 7
    endloop
  endfacet
  facet normal 0 0 1
    outer loop
      vertex 42.5 8.75 7
      vertex 37.5 8 7
      vertex 42.5 3 7
    endloop
  endfacet
  facet normal 0 0 1
    outer loop
      vertex 7.073 22.603 7
      vertex 23 25.5 7
      vertex 17 35.5 7
    endloop
  endfacet
  facet normal 0 0 1
    outer loop
      vertex 37.5 8 7
      vertex 36.927 6.237 7
      vertex 42.5 3 7
    endloop
  endfacet
  facet normal 0 0 1
    outer loop
      vertex 7.073 22.603 7
      vertex 32.927 22.603 7
      vertex 23 25.5 7
    endloop
  endfacet
  facet normal 0 0 1
    outer loop
      vertex 36.927 6.237 7
      vertex 35.427 5.147 7
      vertex 42.5 3 7
    endloop
  endfacet
  facet normal 0 0 1
    outer loop
      vertex 40.427 0.147 7
      vertex 4.573 5.147 7
      vertex -0.427 0.147 7
    endloop
  endfacet
  facet normal 0 0 1
    outer loop
      vertex 3.073 6.237 7
      vertex -2.5 8.75 7
      vertex 4.573 5.147 7
    endloop
  endfacet
  facet normal 0 0 1
    outer loop
      vertex 17 39.5 7
      vertex 17 35.5 7
      vertex 18 39.5 7
    endloop
  endfacet
  facet normal 0 0 1
    outer loop
      vertex 17 49.5 7
      vertex 17 45.5 7
      vertex 18 49.5 7
    endloop
  endfacet
  facet normal 0 0 1
    outer loop
      vertex 19.0449 50.6668 7
      vertex 17.25 51.1895 7
      vertex 17 49.5 7
    endloop
  endfacet
  facet normal 0 0 1
    outer loop
      vertex 18 49.5 7
      vertex 22.75 51.1895 7
      vertex 20.9551 50.6668 7
    endloop
  endfacet
  facet normal 0 0 1
    outer loop
      vertex 22 45.5 7
      vertex 17 40.5 7
      vertex 17 39.5 7
    endloop
  endfacet
  facet normal 0 0 1
    outer loop
      vertex 35.427 5.147 7
      vertex 4.573 5.147 7
      vertex 40.427 0.147 7
    endloop
  endfacet
  facet normal 0 0 1
    outer loop
      vertex 22 45.5 7
      vertex 18 45.5 7
      vertex 17 40.5 7
    endloop
  endfacet
  facet normal 0 0 1
    outer loop
      vertex 27 29.5 7
      vertex 27 25.5 7
      vertex 32.927 22.603 7
    endloop
  endfacet
  facet normal 0 0 1
    outer loop
      vertex 15.7868 52.1717 7
      vertex 14.8317 53.4951 7
      vertex 13 49.5 7
    endloop
  endfacet
  facet normal 0 0 1
    outer loop
      vertex 13 49.5 7
      vertex 17 49.5 7
      vertex 17.25 51.1895 7
    endloop
  endfacet
  facet normal 0 0 1
    outer loop
      vertex 13 45.5 7
      vertex 13 49.5 7
      vertex -2.5 8.75 7
    endloop
  endfacet
  facet normal 0 0 1
    outer loop
      vertex 13 45.5 7
      vertex -2.5 8.75 7
      vertex 13 44.5 7
    endloop
  endfacet
  facet normal 0 0 1
    outer loop
      vertex 13 44.5 7
      vertex 17 44.5 7
      vertex 17 45.5 7
    endloop
  endfacet
  facet normal 0 0 1
    outer loop
      vertex 18 45.5 7
      vertex 17 45.5 7
      vertex 17 44.5 7
    endloop
  endfacet
  facet normal 0 0 1
    outer loop
      vertex 22 45.5 7
      vertex 17 39.5 7
      vertex 18 39.5 7
    endloop
  endfacet
  facet normal 0 0 1
    outer loop
      vertex 14.5 55 7
      vertex 14.8317 56.5049 7
      vertex 13 49.5 7
    endloop
  endfacet
  facet normal 0 0 1
    outer loop
      vertex 20.9551 59.3332 7
      vertex 22.75 58.8105 7
      vertex 23.75 61.4952 7
    endloop
  endfacet
  facet normal 0 0 1
    outer loop
      vertex 14.8317 56.5049 7
      vertex -2.5 8.75 7
      vertex 13 49.5 7
    endloop
  endfacet
  facet normal 0 0 1
    outer loop
      vertex 14.8317 53.4951 7
      vertex 14.5 55 7
      vertex 13 49.5 7
    endloop
  endfacet
  facet normal 0 0 1
    outer loop
      vertex 17.25 58.8105 7
      vertex 19.0449 59.3332 7
      vertex 20 62.5 7
    endloop
  endfacet
  facet normal 0 0 1
    outer loop
      vertex 14.8317 56.5049 7
      vertex 15.7868 57.8283 7
      vertex 16.25 61.4952 7
    endloop
  endfacet
  facet normal 0 0 1
    outer loop
      vertex 16.25 61.4952 7
      vertex -2.5 8.75 7
      vertex 14.8317 56.5049 7
    endloop
  endfacet
  facet normal 0 0 1
    outer loop
      vertex 16.25 61.4952 7
      vertex 15.7868 57.8283 7
      vertex 18.0589 62.2444 7
    endloop
  endfacet
  facet normal 0 0 1
    outer loop
      vertex 18.0589 62.2444 7
      vertex 17.25 58.8105 7
      vertex 20 62.5 7
    endloop
  endfacet
  facet normal 0 0 1
    outer loop
      vertex 20 62.5 7
      vertex 19.0449 59.3332 7
      vertex 21.9411 62.2444 7
    endloop
  endfacet
  facet normal 0 0 1
    outer loop
      vertex 21.9411 62.2444 7
      vertex 20.9551 59.3332 7
      vertex 23.75 61.4952 7
    endloop
  endfacet
  facet normal 0 0 1
    outer loop
      vertex 18 35.5 7
      vertex 18 39.5 7
      vertex 17 35.5 7
    endloop
  endfacet
  facet normal 0 0 1
    outer loop
      vertex 23.75 61.4952 7
      vertex 22.75 58.8105 7
      vertex 25.3033 60.3033 7
    endloop
  endfacet
  facet normal 0 0 1
    outer loop
      vertex 25.3033 60.3033 7
      vertex 24.2132 57.8283 7
      vertex 26.4952 58.75 7
    endloop
  endfacet
  facet normal 0 0 1
    outer loop
      vertex 24.2132 57.8283 7
      vertex 25.1683 56.5049 7
      vertex 26.4952 58.75 7
    endloop
  endfacet
  facet normal 0 0 1
    outer loop
      vertex 15.7868 57.8283 7
      vertex 17.25 58.8105 7
      vertex 18.0589 62.2444 7
    endloop
  endfacet
  facet normal 0 0 1
    outer loop
      vertex 26.4952 58.75 7
      vertex 25.5 55 7
      vertex 27.2444 56.9411 7
    endloop
  endfacet
  facet normal 0 0 1
    outer loop
      vertex 18 49.5 7
      vertex 20.9551 50.6668 7
      vertex 19.0449 50.6668 7
    endloop
  endfacet
  facet normal 0 0 1
    outer loop
      vertex 13 39.5 7
      vertex 17 39.5 7
      vertex 17 40.5 7
    endloop
  endfacet
  facet normal 0 0 1
    outer loop
      vertex 24.2132 52.1717 7
      vertex 22.75 51.1895 7
      vertex 22 49.5 7
    endloop
  endfacet
  facet normal 0 0 1
    outer loop
      vertex 22 49.5 7
      vertex 22 45.5 7
      vertex 23 49.5 7
    endloop
  endfacet
  facet normal 0 0 1
    outer loop
      vertex 18 45.5 7
      vertex 18 49.5 7
      vertex 17 45.5 7
    endloop
  endfacet
  facet normal 0 0 1
    outer loop
      vertex 19.0449 59.3332 7
      vertex 20.9551 59.3332 7
      vertex 21.9411 62.2444 7
    endloop
  endfacet
  facet normal 0 0 1
    outer loop
      vertex 18 39.5 7
      vertex 22 39.5 7
      vertex 23 44.5 7
    endloop
  endfacet
  facet normal 0 0 1
    outer loop
      vertex 23 30.5 7
      vertex 23 34.5 7
      vertex 22 35.5 7
    endloop
  endfacet
  facet normal 0 0 1
    outer loop
      vertex 17 45.5 7
      vertex 13 45.5 7
      vertex 13 44.5 7
    endloop
  endfacet
  facet normal 0 0 1
    outer loop
      vertex 23 30.5 7
      vertex 18 35.5 7
      vertex 17 35.5 7
    endloop
  endfacet
  facet normal 0 0 1
    outer loop
      vertex 22.75 58.8105 7
      vertex 24.2132 57.8283 7
      vertex 25.3033 60.3033 7
    endloop
  endfacet
  facet normal 0 0 1
    outer loop
      vertex 18 39.5 7
      vertex 23 45.5 7
      vertex 22 45.5 7
    endloop
  endfacet
  facet normal 0 0 1
    outer loop
      vertex 35.427 5.147 7
      vertex 41.927 1.237 7
      vertex 42.5 3 7
    endloop
  endfacet
  facet normal 0 0 1
    outer loop
      vertex 23 35.5 7
      vertex 23 39.5 7
      vertex 22 39.5 7
    endloop
  endfacet
  facet normal 0 0 1
    outer loop
      vertex 23 34.5 7
      vertex 27 34.5 7
      vertex 23 35.5 7
    endloop
  endfacet
  facet normal 0 0 1
    outer loop
      vertex 18 49.5 7
      vertex 22 49.5 7
      vertex 22.75 51.1895 7
    endloop
  endfacet
  facet normal 0 0 1
    outer loop
      vertex 17 44.5 7
      vertex 17 40.5 7
      vertex 18 45.5 7
    endloop
  endfacet
  facet normal 0 0 1
    outer loop
      vertex 19.0449 50.6668 7
      vertex 17 49.5 7
      vertex 18 49.5 7
    endloop
  endfacet
  facet normal 0 0 1
    outer loop
      vertex 13 40.5 7
      vertex 13 44.5 7
      vertex -2.5 8.75 7
    endloop
  endfacet
  facet normal 0 0 1
    outer loop
      vertex 27 34.5 7
      vertex 27 30.5 7
      vertex 32.927 22.603 7
    endloop
  endfacet
  facet normal 0 0 1
    outer loop
      vertex 22 49.5 7
      vertex 23 49.5 7
      vertex 24.2132 52.1717 7
    endloop
  endfacet
  facet normal 0 0 1
    outer loop
      vertex 23 49.5 7
      vertex 27 49.5 7
      vertex 27.2444 56.9411 7
    endloop
  endfacet
  facet normal 0 0 1
    outer loop
      vertex 27 25.5 7
      vertex 23 25.5 7
      vertex 32.927 22.603 7
    endloop
  endfacet
  facet normal 0 0 1
    outer loop
      vertex 34.427 21.513 7
      vertex 35 19.75 7
      vertex 39.427 22.263 7
    endloop
  endfacet
  facet normal 0 0 1
    outer loop
      vertex 27 30.5 7
      vertex 27 29.5 7
      vertex 32.927 22.603 7
    endloop
  endfacet
  facet normal 0 0 1
    outer loop
      vertex 17 35.5 7
      vertex 23 25.5 7
      vertex 23 29.5 7
    endloop
  endfacet
  facet normal 0 0 1
    outer loop
      vertex 27 45.5 7
      vertex 23 45.5 7
      vertex 23 44.5 7
    endloop
  endfacet
  facet normal 0 0 1
    outer loop
      vertex 23 30.5 7
      vertex 22 35.5 7
      vertex 18 35.5 7
    endloop
  endfacet
  facet normal 0 0 1
    outer loop
      vertex 17 35.5 7
      vertex 23 29.5 7
      vertex 23 30.5 7
    endloop
  endfacet
  facet normal 0 0 1
    outer loop
      vertex 27 40.5 7
      vertex 23 40.5 7
      vertex 23 39.5 7
    endloop
  endfacet
  facet normal 0 0 1
    outer loop
      vertex 22 39.5 7
      vertex 22 35.5 7
      vertex 23 34.5 7
    endloop
  endfacet
  facet normal 0 0 1
    outer loop
      vertex 27.2444 56.9411 7
      vertex 27 34.5 7
      vertex 32.927 22.603 7
    endloop
  endfacet
  facet normal 0 0 1
    outer loop
      vertex 27 35.5 7
      vertex 23 35.5 7
      vertex 27 34.5 7
    endloop
  endfacet
  facet normal 0 0 1
    outer loop
      vertex 22 39.5 7
      vertex 23 34.5 7
      vertex 23 35.5 7
    endloop
  endfacet
  facet normal 0 0 1
    outer loop
      vertex 23 40.5 7
      vertex 22 39.5 7
      vertex 23 39.5 7
    endloop
  endfacet
  facet normal 0 0 1
    outer loop
      vertex 27 40.5 7
      vertex 23 39.5 7
      vertex 27 39.5 7
    endloop
  endfacet
  facet normal 0 0 1
    outer loop
      vertex 27.2444 56.9411 7
      vertex 27 35.5 7
      vertex 27 34.5 7
    endloop
  endfacet
  facet normal 0 0 1
    outer loop
      vertex 27.2444 56.9411 7
      vertex 27 39.5 7
      vertex 27 35.5 7
    endloop
  endfacet
  facet normal 0 0 1
    outer loop
      vertex 23 45.5 7
      vertex 23 49.5 7
      vertex 22 45.5 7
    endloop
  endfacet
  facet normal 0 0 1
    outer loop
      vertex 25.1683 53.4951 7
      vertex 23 49.5 7
      vertex 27.2444 56.9411 7
    endloop
  endfacet
  facet normal 0 0 1
    outer loop
      vertex 27.2444 56.9411 7
      vertex 27 44.5 7
      vertex 27 40.5 7
    endloop
  endfacet
  facet normal 0 0 1
    outer loop
      vertex 23 44.5 7
      vertex 27 44.5 7
      vertex 27 45.5 7
    endloop
  endfacet
  facet normal 0 0 1
    outer loop
      vertex 27.2444 56.9411 7
      vertex 27 40.5 7
      vertex 27 39.5 7
    endloop
  endfacet
  facet normal 0 0 1
    outer loop
      vertex 24.2132 52.1717 7
      vertex 23 49.5 7
      vertex 25.1683 53.4951 7
    endloop
  endfacet
  facet normal 0 0 1
    outer loop
      vertex 35.427 5.147 7
      vertex 40.427 0.147 7
      vertex 41.927 1.237 7
    endloop
  endfacet
  facet normal 0 0 1
    outer loop
      vertex 23 40.5 7
      vertex 23 44.5 7
      vertex 22 39.5 7
    endloop
  endfacet
  facet normal 0 0 1
    outer loop
      vertex 27.2444 56.9411 7
      vertex 27 45.5 7
      vertex 27 44.5 7
    endloop
  endfacet
  facet normal 0 0 1
    outer loop
      vertex 27.2444 56.9411 7
      vertex 27 49.5 7
      vertex 27 45.5 7
    endloop
  endfacet
  facet normal 0 0 1
    outer loop
      vertex 3.073 6.237 7
      vertex 2.5 8 7
      vertex -2.5 8.75 7
    endloop
  endfacet
  facet normal 0 0 1
    outer loop
      vertex 2.5 8 7
      vertex 2.5 10.875 7
      vertex -2.5 8.75 7
    endloop
  endfacet
  facet normal 0 0 1
    outer loop
      vertex 17 35.5 7
      vertex 13 35.5 7
      vertex 5.573 21.513 7
    endloop
  endfacet
  facet normal 0 0 -1
    outer loop
      vertex 10.1794 33.1224 4.45
      vertex 11.3031 35.0687 4.45
      vertex 9.48491 30.9851 4.45
    endloop
  endfacet
  facet normal 0 0 -1
    outer loop
      vertex 9.48491 30.9851 4.45
      vertex 11.3031 35.0687 4.45
      vertex 12.8068 36.7388 4.45
    endloop
  endfacet
  facet normal 0 0 -1
    outer loop
      vertex 9.48491 30.9851 4.45
      vertex 12.8068 36.7388 4.45
      vertex 14.625 38.0598 4.45
    endloop
  endfacet
  facet normal 0 0 -1
    outer loop
      vertex 9.48491 30.9851 4.45
      vertex 14.625 38.0598 4.45
      vertex 16.6781 38.9739 4.45
    endloop
  endfacet
  facet normal 0 0 -1
    outer loop
      vertex 9.48491 30.9851 4.45
      vertex 16.6781 38.9739 4.45
      vertex 18.8763 39.4411 4.45
    endloop
  endfacet
  facet normal 0 0 -1
    outer loop
      vertex 9.48491 30.9851 4.45
      vertex 18.8763 39.4411 4.45
      vertex 21.1237 39.4411 4.45
    endloop
  endfacet
  facet normal 0 0 -1
    outer loop
      vertex 9.48491 30.9851 4.45
      vertex 21.1237 39.4411 4.45
      vertex 23.3219 38.9739 4.45
    endloop
  endfacet
  facet normal 0 0 -1
    outer loop
      vertex 9.48491 30.9851 4.45
      vertex 23.3219 38.9739 4.45
      vertex 25.375 38.0598 4.45
    endloop
  endfacet
  facet normal 0 0 -1
    outer loop
      vertex 9.48491 30.9851 4.45
      vertex 25.375 38.0598 4.45
      vertex 27.1932 36.7388 4.45
    endloop
  endfacet
  facet normal 0 0 -1
    outer loop
      vertex 9.48491 30.9851 4.45
      vertex 27.1932 36.7388 4.45
      vertex 28.6969 35.0687 4.45
    endloop
  endfacet
  facet normal 0 0 -1
    outer loop
      vertex 9.48491 30.9851 4.45
      vertex 28.6969 35.0687 4.45
      vertex 29.8206 33.1224 4.45
    endloop
  endfacet
  facet normal 0 0 -1
    outer loop
      vertex 9.48491 30.9851 4.45
      vertex 29.8206 33.1224 4.45
      vertex 30.5151 30.9851 4.45
    endloop
  endfacet
  facet normal 0 0 -1
    outer loop
      vertex 9.48491 30.9851 4.45
      vertex 30.5151 30.9851 4.45
      vertex 30.75 28.75 4.45
    endloop
  endfacet
  facet normal 0 0 -1
    outer loop
      vertex 9.48491 30.9851 4.45
      vertex 30.75 28.75 4.45
      vertex 30.5151 26.5149 4.45
    endloop
  endfacet
  facet normal 0 0 -1
    outer loop
      vertex 9.48491 30.9851 4.45
      vertex 30.5151 26.5149 4.45
      vertex 29.8206 24.3776 4.45
    endloop
  endfacet
  facet normal 0 0 -1
    outer loop
      vertex 9.48491 30.9851 4.45
      vertex 29.8206 24.3776 4.45
      vertex 28.7961 22.603 4.45
    endloop
  endfacet
  facet normal 0 0 -1
    outer loop
      vertex 9.48491 30.9851 4.45
      vertex 28.7961 22.603 4.45
      vertex 11.2039 22.603 4.45
    endloop
  endfacet
  facet normal 0 0 -1
    outer loop
      vertex 9.48491 30.9851 4.45
      vertex 11.2039 22.603 4.45
      vertex 10.1794 24.3776 4.45
    endloop
  endfacet
  facet normal 0 0 -1
    outer loop
      vertex 9.48491 30.9851 4.45
      vertex 10.1794 24.3776 4.45
      vertex 9.48491 26.5149 4.45
    endloop
  endfacet
  facet normal 0 0 -1
    outer loop
      vertex 9.48491 30.9851 4.45
      vertex 9.48491 26.5149 4.45
      vertex 9.25 28.75 4.45
    endloop
  endfacet
  facet normal 0.866025 0.5 0
    outer loop
      vertex 10.1794 24.3776 4.45
      vertex 11.2039 22.603 4.45
      vertex 11.2039 22.603 2.55
    endloop
  endfacet
  facet normal 0.866025 0.5 0
    outer loop
      vertex 10.1794 24.3776 2.55
      vertex 10.1794 24.3776 4.45
      vertex 11.2039 22.603 2.55
    endloop
  endfacet
  facet normal 0 0 1
    outer loop
      vertex 9.48491 26.5149 2.55
      vertex 10.1794 24.3776 2.55
      vertex 11.2039 22.603 2.55
    endloop
  endfacet
  facet normal 0 0 1
    outer loop
      vertex 29.8206 24.3776 2.55
      vertex 9.48491 26.5149 2.55
      vertex 28.7961 22.603 2.55
    endloop
  endfacet
  facet normal 0 0 1
    outer loop
      vertex 28.7961 22.603 2.55
      vertex 9.48491 26.5149 2.55
      vertex 11.2039 22.603 2.55
    endloop
  endfacet
  facet normal 0 0 1
    outer loop
      vertex 30.5151 26.5149 2.55
      vertex 9.48491 26.5149 2.55
      vertex 29.8206 24.3776 2.55
    endloop
  endfacet
  facet normal 0 0 1
    outer loop
      vertex 30.75 28.75 2.55
      vertex 9.48491 26.5149 2.55
      vertex 30.5151 26.5149 2.55
    endloop
  endfacet
  facet normal 0 0 1
    outer loop
      vertex 30.5151 30.9851 2.55
      vertex 9.48491 26.5149 2.55
      vertex 30.75 28.75 2.55
    endloop
  endfacet
  facet normal 0 0 1
    outer loop
      vertex 29.8206 33.1224 2.55
      vertex 9.48491 26.5149 2.55
      vertex 30.5151 30.9851 2.55
    endloop
  endfacet
  facet normal 0 0 1
    outer loop
      vertex 28.6969 35.0687 2.55
      vertex 9.48491 26.5149 2.55
      vertex 29.8206 33.1224 2.55
    endloop
  endfacet
  facet normal 0 0 1
    outer loop
      vertex 27.1932 36.7388 2.55
      vertex 9.48491 26.5149 2.55
      vertex 28.6969 35.0687 2.55
    endloop
  endfacet
  facet normal 0 0 1
    outer loop
      vertex 25.375 38.0598 2.55
      vertex 9.48491 26.5149 2.55
      vertex 27.1932 36.7388 2.55
    endloop
  endfacet
  facet normal 0 0 1
    outer loop
      vertex 23.3219 38.9739 2.55
      vertex 9.48491 26.5149 2.55
      vertex 25.375 38.0598 2.55
    endloop
  endfacet
  facet normal 0 0 1
    outer loop
      vertex 21.1237 39.4411 2.55
      vertex 9.48491 26.5149 2.55
      vertex 23.3219 38.9739 2.55
    endloop
  endfacet
  facet normal 0 0 1
    outer loop
      vertex 18.8763 39.4411 2.55
      vertex 9.48491 26.5149 2.55
      vertex 21.1237 39.4411 2.55
    endloop
  endfacet
  facet normal 0 0 1
    outer loop
      vertex 16.6781 38.9739 2.55
      vertex 9.48491 26.5149 2.55
      vertex 18.8763 39.4411 2.55
    endloop
  endfacet
  facet normal 0 0 1
    outer loop
      vertex 14.625 38.0598 2.55
      vertex 9.48491 26.5149 2.55
      vertex 16.6781 38.9739 2.55
    endloop
  endfacet
  facet normal 0 0 1
    outer loop
      vertex 12.8068 36.7388 2.55
      vertex 9.48491 26.5149 2.55
      vertex 14.625 38.0598 2.55
    endloop
  endfacet
  facet normal 0 0 1
    outer loop
      vertex 11.3031 35.0687 2.55
      vertex 9.48491 26.5149 2.55
      vertex 12.8068 36.7388 2.55
    endloop
  endfacet
  facet normal 0 0 1
    outer loop
      vertex 10.1794 33.1224 2.55
      vertex 9.48491 26.5149 2.55
      vertex 11.3031 35.0687 2.55
    endloop
  endfacet
  facet normal 0 0 1
    outer loop
      vertex 9.48491 30.9851 2.55
      vertex 9.48491 26.5149 2.55
      vertex 10.1794 33.1224 2.55
    endloop
  endfacet
  facet normal 0 0 1
    outer loop
      vertex 9.25 28.75 2.55
      vertex 9.48491 26.5149 2.55
      vertex 9.48491 30.9851 2.55
    endloop
  endfacet
  facet normal -0.866025 0.5 0
    outer loop
      vertex 29.8206 24.3776 4.45
      vertex 29.8206 24.3776 2.55
      vertex 28.7961 22.603 4.45
    endloop
  endfacet
  facet normal -0.866025 0.5 0
    outer loop
      vertex 28.7961 22.603 4.45
      vertex 29.8206 24.3776 2.55
      vertex 28.7961 22.603 2.55
    endloop
  endfacet
  facet normal 1 -1.22461e-016 0
    outer loop
      vertex 13 35.5 6
      vertex 13 39.5 6
      vertex 13 39.5 7
    endloop
  endfacet
  facet normal 1 -1.22461e-016 0
    outer loop
      vertex 13 35.5 7
      vertex 13 35.5 6
      vertex 13 39.5 7
    endloop
  endfacet
  facet normal 1.22461e-016 1 1.22461e-016
    outer loop
      vertex 17 35.5 6
      vertex 13 35.5 6
      vertex 17 35.5 7
    endloop
  endfacet
  facet normal 1.22461e-016 1 1.22461e-016
    outer loop
      vertex 17 35.5 7
      vertex 13 35.5 6
      vertex 13 35.5 7
    endloop
  endfacet
  facet normal -1 1.22461e-016 0
    outer loop
      vertex 17 39.5 6
      vertex 17 35.5 6
      vertex 17 39.5 7
    endloop
  endfacet
  facet normal -1 1.22461e-016 0
    outer loop
      vertex 17 39.5 7
      vertex 17 35.5 6
      vertex 17 35.5 7
    endloop
  endfacet
  facet normal -1.22461e-016 -1 -1.22461e-016
    outer loop
      vertex 13 39.5 6
      vertex 17 39.5 6
      vertex 17 39.5 7
    endloop
  endfacet
  facet normal -1.22461e-016 -1 -1.22461e-016
    outer loop
      vertex 13 39.5 7
      vertex 13 39.5 6
      vertex 17 39.5 7
    endloop
  endfacet
  facet normal 1 -1.22461e-016 0
    outer loop
      vertex 13 40.5 6
      vertex 13 44.5 6
      vertex 13 44.5 7
    endloop
  endfacet
  facet normal 1 -1.22461e-016 0
    outer loop
      vertex 13 40.5 7
      vertex 13 40.5 6
      vertex 13 44.5 7
    endloop
  endfacet
  facet normal 1.22461e-016 1 1.22461e-016
    outer loop
      vertex 17 40.5 6
      vertex 13 40.5 6
      vertex 17 40.5 7
    endloop
  endfacet
  facet normal 1.22461e-016 1 1.22461e-016
    outer loop
      vertex 17 40.5 7
      vertex 13 40.5 6
      vertex 13 40.5 7
    endloop
  endfacet
  facet normal -1 1.22461e-016 0
    outer loop
      vertex 17 44.5 6
      vertex 17 40.5 6
      vertex 17 44.5 7
    endloop
  endfacet
  facet normal -1 1.22461e-016 0
    outer loop
      vertex 17 44.5 7
      vertex 17 40.5 6
      vertex 17 40.5 7
    endloop
  endfacet
  facet normal -1.22461e-016 -1 -1.22461e-016
    outer loop
      vertex 13 44.5 6
      vertex 17 44.5 6
      vertex 17 44.5 7
    endloop
  endfacet
  facet normal -1.22461e-016 -1 -1.22461e-016
    outer loop
      vertex 13 44.5 7
      vertex 13 44.5 6
      vertex 17 44.5 7
    endloop
  endfacet
  facet normal 1 -1.22461e-016 0
    outer loop
      vertex 13 45.5 6
      vertex 13 49.5 6
      vertex 13 49.5 7
    endloop
  endfacet
  facet normal 1 -1.22461e-016 0
    outer loop
      vertex 13 45.5 7
      vertex 13 45.5 6
      vertex 13 49.5 7
    endloop
  endfacet
  facet normal 1.22461e-016 1 1.22461e-016
    outer loop
      vertex 17 45.5 6
      vertex 13 45.5 6
      vertex 17 45.5 7
    endloop
  endfacet
  facet normal 1.22461e-016 1 1.22461e-016
    outer loop
      vertex 17 45.5 7
      vertex 13 45.5 6
      vertex 13 45.5 7
    endloop
  endfacet
  facet normal -1 1.22461e-016 0
    outer loop
      vertex 17 49.5 6
      vertex 17 45.5 6
      vertex 17 49.5 7
    endloop
  endfacet
  facet normal -1 1.22461e-016 0
    outer loop
      vertex 17 49.5 7
      vertex 17 45.5 6
      vertex 17 45.5 7
    endloop
  endfacet
  facet normal -1.22461e-016 -1 -1.22461e-016
    outer loop
      vertex 13 49.5 6
      vertex 17 49.5 6
      vertex 17 49.5 7
    endloop
  endfacet
  facet normal -1.22461e-016 -1 -1.22461e-016
    outer loop
      vertex 13 49.5 7
      vertex 13 49.5 6
      vertex 17 49.5 7
    endloop
  endfacet
  facet normal 1 -1.22461e-016 0
    outer loop
      vertex 18 35.5 6
      vertex 18 39.5 6
      vertex 18 39.5 7
    endloop
  endfacet
  facet normal 1 -1.22461e-016 0
    outer loop
      vertex 18 35.5 7
      vertex 18 35.5 6
      vertex 18 39.5 7
    endloop
  endfacet
  facet normal 1.22461e-016 1 1.22461e-016
    outer loop
      vertex 22 35.5 6
      vertex 18 35.5 6
      vertex 22 35.5 7
    endloop
  endfacet
  facet normal 1.22461e-016 1 1.22461e-016
    outer loop
      vertex 22 35.5 7
      vertex 18 35.5 6
      vertex 18 35.5 7
    endloop
  endfacet
  facet normal -1 1.22461e-016 0
    outer loop
      vertex 22 39.5 6
      vertex 22 35.5 6
      vertex 22 39.5 7
    endloop
  endfacet
  facet normal -1 1.22461e-016 0
    outer loop
      vertex 22 39.5 7
      vertex 22 35.5 6
      vertex 22 35.5 7
    endloop
  endfacet
  facet normal -1.22461e-016 -1 -1.22461e-016
    outer loop
      vertex 18 39.5 6
      vertex 22 39.5 6
      vertex 22 39.5 7
    endloop
  endfacet
  facet normal -1.22461e-016 -1 -1.22461e-016
    outer loop
      vertex 18 39.5 7
      vertex 18 39.5 6
      vertex 22 39.5 7
    endloop
  endfacet
  facet normal 1 -1.22461e-016 0
    outer loop
      vertex 18 45.5 6
      vertex 18 49.5 6
      vertex 18 49.5 7
    endloop
  endfacet
  facet normal 1 -1.22461e-016 0
    outer loop
      vertex 18 45.5 7
      vertex 18 45.5 6
      vertex 18 49.5 7
    endloop
  endfacet
  facet normal 1.22461e-016 1 1.22461e-016
    outer loop
      vertex 22 45.5 6
      vertex 18 45.5 6
      vertex 22 45.5 7
    endloop
  endfacet
  facet normal 1.22461e-016 1 1.22461e-016
    outer loop
      vertex 22 45.5 7
      vertex 18 45.5 6
      vertex 18 45.5 7
    endloop
  endfacet
  facet normal -1 1.22461e-016 0
    outer loop
      vertex 22 49.5 6
      vertex 22 45.5 6
      vertex 22 49.5 7
    endloop
  endfacet
  facet normal -1 1.22461e-016 0
    outer loop
      vertex 22 49.5 7
      vertex 22 45.5 6
      vertex 22 45.5 7
    endloop
  endfacet
  facet normal -1.22461e-016 -1 -1.22461e-016
    outer loop
      vertex 18 49.5 6
      vertex 22 49.5 6
      vertex 22 49.5 7
    endloop
  endfacet
  facet normal -1.22461e-016 -1 -1.22461e-016
    outer loop
      vertex 18 49.5 7
      vertex 18 49.5 6
      vertex 22 49.5 7
    endloop
  endfacet
  facet normal 1 -1.22461e-016 0
    outer loop
      vertex 23 25.5 6
      vertex 23 29.5 6
      vertex 23 29.5 7
    endloop
  endfacet
  facet normal 1 -1.22461e-016 0
    outer loop
      vertex 23 25.5 7
      vertex 23 25.5 6
      vertex 23 29.5 7
    endloop
  endfacet
  facet normal 1.22461e-016 1 1.22461e-016
    outer loop
      vertex 27 25.5 6
      vertex 23 25.5 6
      vertex 27 25.5 7
    endloop
  endfacet
  facet normal 1.22461e-016 1 1.22461e-016
    outer loop
      vertex 27 25.5 7
      vertex 23 25.5 6
      vertex 23 25.5 7
    endloop
  endfacet
  facet normal -1 1.22461e-016 0
    outer loop
      vertex 27 29.5 6
      vertex 27 25.5 6
      vertex 27 29.5 7
    endloop
  endfacet
  facet normal -1 1.22461e-016 0
    outer loop
      vertex 27 29.5 7
      vertex 27 25.5 6
      vertex 27 25.5 7
    endloop
  endfacet
  facet normal -1.22461e-016 -1 -1.22461e-016
    outer loop
      vertex 23 29.5 6
      vertex 27 29.5 6
      vertex 27 29.5 7
    endloop
  endfacet
  facet normal -1.22461e-016 -1 -1.22461e-016
    outer loop
      vertex 23 29.5 7
      vertex 23 29.5 6
      vertex 27 29.5 7
    endloop
  endfacet
  facet normal 1 -1.22461e-016 0
    outer loop
      vertex 23 30.5 6
      vertex 23 34.5 6
      vertex 23 34.5 7
    endloop
  endfacet
  facet normal 1 -1.22461e-016 0
    outer loop
      vertex 23 30.5 7
      vertex 23 30.5 6
      vertex 23 34.5 7
    endloop
  endfacet
  facet normal 1.22461e-016 1 1.22461e-016
    outer loop
      vertex 27 30.5 6
      vertex 23 30.5 6
      vertex 27 30.5 7
    endloop
  endfacet
  facet normal 1.22461e-016 1 1.22461e-016
    outer loop
      vertex 27 30.5 7
      vertex 23 30.5 6
      vertex 23 30.5 7
    endloop
  endfacet
  facet normal -1 1.22461e-016 0
    outer loop
      vertex 27 34.5 6
      vertex 27 30.5 6
      vertex 27 34.5 7
    endloop
  endfacet
  facet normal -1 1.22461e-016 0
    outer loop
      vertex 27 34.5 7
      vertex 27 30.5 6
      vertex 27 30.5 7
    endloop
  endfacet
  facet normal -1.22461e-016 -1 -1.22461e-016
    outer loop
      vertex 23 34.5 6
      vertex 27 34.5 6
      vertex 27 34.5 7
    endloop
  endfacet
  facet normal -1.22461e-016 -1 -1.22461e-016
    outer loop
      vertex 23 34.5 7
      vertex 23 34.5 6
      vertex 27 34.5 7
    endloop
  endfacet
  facet normal 1 -1.22461e-016 0
    outer loop
      vertex 23 35.5 6
      vertex 23 39.5 6
      vertex 23 39.5 7
    endloop
  endfacet
  facet normal 1 -1.22461e-016 0
    outer loop
      vertex 23 35.5 7
      vertex 23 35.5 6
      vertex 23 39.5 7
    endloop
  endfacet
  facet normal 1.22461e-016 1 1.22461e-016
    outer loop
      vertex 27 35.5 6
      vertex 23 35.5 6
      vertex 27 35.5 7
    endloop
  endfacet
  facet normal 1.22461e-016 1 1.22461e-016
    outer loop
      vertex 27 35.5 7
      vertex 23 35.5 6
      vertex 23 35.5 7
    endloop
  endfacet
  facet normal -1 1.22461e-016 0
    outer loop
      vertex 27 39.5 6
      vertex 27 35.5 6
      vertex 27 39.5 7
    endloop
  endfacet
  facet normal -1 1.22461e-016 0
    outer loop
      vertex 27 39.5 7
      vertex 27 35.5 6
      vertex 27 35.5 7
    endloop
  endfacet
  facet normal -1.22461e-016 -1 -1.22461e-016
    outer loop
      vertex 23 39.5 6
      vertex 27 39.5 6
      vertex 27 39.5 7
    endloop
  endfacet
  facet normal -1.22461e-016 -1 -1.22461e-016
    outer loop
      vertex 23 39.5 7
      vertex 23 39.5 6
      vertex 27 39.5 7
    endloop
  endfacet
  facet normal 1 -1.22461e-016 0
    outer loop
      vertex 23 40.5 6
      vertex 23 44.5 6
      vertex 23 44.5 7
    endloop
  endfacet
  facet normal 1 -1.22461e-016 0
    outer loop
      vertex 23 40.5 7
      vertex 23 40.5 6
      vertex 23 44.5 7
    endloop
  endfacet
  facet normal 1.22461e-016 1 1.22461e-016
    outer loop
      vertex 27 40.5 6
      vertex 23 40.5 6
      vertex 27 40.5 7
    endloop
  endfacet
  facet normal 1.22461e-016 1 1.22461e-016
    outer loop
      vertex 27 40.5 7
      vertex 23 40.5 6
      vertex 23 40.5 7
    endloop
  endfacet
  facet normal -1 1.22461e-016 0
    outer loop
      vertex 27 44.5 6
      vertex 27 40.5 6
      vertex 27 44.5 7
    endloop
  endfacet
  facet normal -1 1.22461e-016 0
    outer loop
      vertex 27 44.5 7
      vertex 27 40.5 6
      vertex 27 40.5 7
    endloop
  endfacet
  facet normal -1.22461e-016 -1 -1.22461e-016
    outer loop
      vertex 23 44.5 6
      vertex 27 44.5 6
      vertex 27 44.5 7
    endloop
  endfacet
  facet normal -1.22461e-016 -1 -1.22461e-016
    outer loop
      vertex 23 44.5 7
      vertex 23 44.5 6
      vertex 27 44.5 7
    endloop
  endfacet
  facet normal 1 -1.22461e-016 0
    outer loop
      vertex 23 45.5 6
      vertex 23 49.5 6
      vertex 23 49.5 7
    endloop
  endfacet
  facet normal 1 -1.22461e-016 0
    outer loop
      vertex 23 45.5 7
      vertex 23 45.5 6
      vertex 23 49.5 7
    endloop
  endfacet
  facet normal 1.22461e-016 1 1.22461e-016
    outer loop
      vertex 27 45.5 6
      vertex 23 45.5 6
      vertex 27 45.5 7
    endloop
  endfacet
  facet normal 1.22461e-016 1 1.22461e-016
    outer loop
      vertex 27 45.5 7
      vertex 23 45.5 6
      vertex 23 45.5 7
    endloop
  endfacet
  facet normal -1 1.22461e-016 0
    outer loop
      vertex 27 49.5 6
      vertex 27 45.5 6
      vertex 27 49.5 7
    endloop
  endfacet
  facet normal -1 1.22461e-016 0
    outer loop
      vertex 27 49.5 7
      vertex 27 45.5 6
      vertex 27 45.5 7
    endloop
  endfacet
  facet normal -1.22461e-016 -1 -1.22461e-016
    outer loop
      vertex 23 49.5 6
      vertex 27 49.5 6
      vertex 27 49.5 7
    endloop
  endfacet
  facet normal -1.22461e-016 -1 -1.22461e-016
    outer loop
      vertex 23 49.5 7
      vertex 23 49.5 6
      vertex 27 49.5 7
    endloop
  endfacet
  facet normal 0.951057 -0.309017 0
    outer loop
      vertex 10.1794 33.1224 2.55
      vertex 10.1794 33.1224 4.45
      vertex 9.48491 30.9851 4.45
    endloop
  endfacet
  facet normal 0.951057 -0.309017 0
    outer loop
      vertex 9.48491 30.9851 2.55
      vertex 10.1794 33.1224 2.55
      vertex 9.48491 30.9851 4.45
    endloop
  endfacet
  facet normal 0.994522 -0.104528 0
    outer loop
      vertex 9.48491 30.9851 2.55
      vertex 9.48491 30.9851 4.45
      vertex 9.25 28.75 4.45
    endloop
  endfacet
  facet normal 0.994522 -0.104528 0
    outer loop
      vertex 9.25 28.75 2.55
      vertex 9.48491 30.9851 2.55
      vertex 9.25 28.75 4.45
    endloop
  endfacet
  facet normal 0.994522 0.104528 0
    outer loop
      vertex 9.25 28.75 4.45
      vertex 9.48491 26.5149 4.45
      vertex 9.48491 26.5149 2.55
    endloop
  endfacet
  facet normal 0.994522 0.104528 0
    outer loop
      vertex 9.25 28.75 2.55
      vertex 9.25 28.75 4.45
      vertex 9.48491 26.5149 2.55
    endloop
  endfacet
  facet normal 0.951057 0.309017 0
    outer loop
      vertex 9.48491 26.5149 4.45
      vertex 10.1794 24.3776 4.45
      vertex 10.1794 24.3776 2.55
    endloop
  endfacet
  facet normal 0.951057 0.309017 0
    outer loop
      vertex 9.48491 26.5149 2.55
      vertex 9.48491 26.5149 4.45
      vertex 10.1794 24.3776 2.55
    endloop
  endfacet
  facet normal -0.951057 0.309017 0
    outer loop
      vertex 30.5151 26.5149 4.45
      vertex 30.5151 26.5149 2.55
      vertex 29.8206 24.3776 4.45
    endloop
  endfacet
  facet normal -0.951057 0.309017 0
    outer loop
      vertex 29.8206 24.3776 4.45
      vertex 30.5151 26.5149 2.55
      vertex 29.8206 24.3776 2.55
    endloop
  endfacet
  facet normal -0.994522 0.104528 0
    outer loop
      vertex 30.75 28.75 4.45
      vertex 30.75 28.75 2.55
      vertex 30.5151 26.5149 4.45
    endloop
  endfacet
  facet normal -0.994522 0.104528 0
    outer loop
      vertex 30.5151 26.5149 4.45
      vertex 30.75 28.75 2.55
      vertex 30.5151 26.5149 2.55
    endloop
  endfacet
  facet normal -0.994522 -0.104528 0
    outer loop
      vertex 30.75 28.75 4.45
      vertex 30.5151 30.9851 4.45
      vertex 30.75 28.75 2.55
    endloop
  endfacet
  facet normal -0.994522 -0.104528 0
    outer loop
      vertex 30.75 28.75 2.55
      vertex 30.5151 30.9851 4.45
      vertex 30.5151 30.9851 2.55
    endloop
  endfacet
  facet normal -0.951057 -0.309017 0
    outer loop
      vertex 30.5151 30.9851 4.45
      vertex 29.8206 33.1224 4.45
      vertex 30.5151 30.9851 2.55
    endloop
  endfacet
  facet normal -0.951057 -0.309017 0
    outer loop
      vertex 30.5151 30.9851 2.55
      vertex 29.8206 33.1224 4.45
      vertex 29.8206 33.1224 2.55
    endloop
  endfacet
  facet normal -0.866025 -0.5 0
    outer loop
      vertex 29.8206 33.1224 4.45
      vertex 28.6969 35.0687 4.45
      vertex 29.8206 33.1224 2.55
    endloop
  endfacet
  facet normal -0.866025 -0.5 0
    outer loop
      vertex 29.8206 33.1224 2.55
      vertex 28.6969 35.0687 4.45
      vertex 28.6969 35.0687 2.55
    endloop
  endfacet
  facet normal -0.743145 -0.669131 0
    outer loop
      vertex 28.6969 35.0687 4.45
      vertex 27.1932 36.7388 4.45
      vertex 28.6969 35.0687 2.55
    endloop
  endfacet
  facet normal -0.743145 -0.669131 0
    outer loop
      vertex 28.6969 35.0687 2.55
      vertex 27.1932 36.7388 4.45
      vertex 27.1932 36.7388 2.55
    endloop
  endfacet
  facet normal -0.587785 -0.809017 0
    outer loop
      vertex 27.1932 36.7388 2.55
      vertex 27.1932 36.7388 4.45
      vertex 25.375 38.0598 4.45
    endloop
  endfacet
  facet normal -0.587785 -0.809017 0
    outer loop
      vertex 25.375 38.0598 2.55
      vertex 27.1932 36.7388 2.55
      vertex 25.375 38.0598 4.45
    endloop
  endfacet
  facet normal -0.406737 -0.913545 0
    outer loop
      vertex 25.375 38.0598 2.55
      vertex 25.375 38.0598 4.45
      vertex 23.3219 38.9739 4.45
    endloop
  endfacet
  facet normal -0.406737 -0.913545 0
    outer loop
      vertex 23.3219 38.9739 2.55
      vertex 25.375 38.0598 2.55
      vertex 23.3219 38.9739 4.45
    endloop
  endfacet
  facet normal -0.207911 -0.978148 0
    outer loop
      vertex 23.3219 38.9739 2.55
      vertex 23.3219 38.9739 4.45
      vertex 21.1237 39.4411 4.45
    endloop
  endfacet
  facet normal -0.207911 -0.978148 0
    outer loop
      vertex 21.1237 39.4411 2.55
      vertex 23.3219 38.9739 2.55
      vertex 21.1237 39.4411 4.45
    endloop
  endfacet
  facet normal 0 -1 0
    outer loop
      vertex 21.1237 39.4411 2.55
      vertex 21.1237 39.4411 4.45
      vertex 18.8763 39.4411 4.45
    endloop
  endfacet
  facet normal 0 -1 0
    outer loop
      vertex 18.8763 39.4411 2.55
      vertex 21.1237 39.4411 2.55
      vertex 18.8763 39.4411 4.45
    endloop
  endfacet
  facet normal 0.207911 -0.978148 0
    outer loop
      vertex 18.8763 39.4411 2.55
      vertex 18.8763 39.4411 4.45
      vertex 16.6781 38.9739 4.45
    endloop
  endfacet
  facet normal 0.207911 -0.978148 0
    outer loop
      vertex 16.6781 38.9739 2.55
      vertex 18.8763 39.4411 2.55
      vertex 16.6781 38.9739 4.45
    endloop
  endfacet
  facet normal 0.406737 -0.913545 0
    outer loop
      vertex 16.6781 38.9739 2.55
      vertex 16.6781 38.9739 4.45
      vertex 14.625 38.0598 4.45
    endloop
  endfacet
  facet normal 0.406737 -0.913545 0
    outer loop
      vertex 14.625 38.0598 2.55
      vertex 16.6781 38.9739 2.55
      vertex 14.625 38.0598 4.45
    endloop
  endfacet
  facet normal 0.587785 -0.809017 0
    outer loop
      vertex 14.625 38.0598 2.55
      vertex 14.625 38.0598 4.45
      vertex 12.8068 36.7388 4.45
    endloop
  endfacet
  facet normal 0.587785 -0.809017 0
    outer loop
      vertex 12.8068 36.7388 2.55
      vertex 14.625 38.0598 2.55
      vertex 12.8068 36.7388 4.45
    endloop
  endfacet
  facet normal 0.743145 -0.669131 0
    outer loop
      vertex 12.8068 36.7388 2.55
      vertex 12.8068 36.7388 4.45
      vertex 11.3031 35.0687 4.45
    endloop
  endfacet
  facet normal 0.743145 -0.669131 0
    outer loop
      vertex 11.3031 35.0687 2.55
      vertex 12.8068 36.7388 2.55
      vertex 11.3031 35.0687 4.45
    endloop
  endfacet
  facet normal 0.866025 -0.5 0
    outer loop
      vertex 11.3031 35.0687 2.55
      vertex 11.3031 35.0687 4.45
      vertex 10.1794 33.1224 4.45
    endloop
  endfacet
  facet normal 0.866025 -0.5 0
    outer loop
      vertex 10.1794 33.1224 2.55
      vertex 11.3031 35.0687 2.55
      vertex 10.1794 33.1224 4.45
    endloop
  endfacet
  facet normal -1.49966e-032 -1.22461e-016 1
    outer loop
      vertex 17 35.5 6
      vertex 17 39.5 6
      vertex 13 39.5 6
    endloop
  endfacet
  facet normal -1.49966e-032 -1.22461e-016 1
    outer loop
      vertex 13 35.5 6
      vertex 17 35.5 6
      vertex 13 39.5 6
    endloop
  endfacet
  facet normal -1.49966e-032 -1.22461e-016 1
    outer loop
      vertex 17 40.5 6
      vertex 17 44.5 6
      vertex 13 44.5 6
    endloop
  endfacet
  facet normal -1.49966e-032 -1.22461e-016 1
    outer loop
      vertex 13 40.5 6
      vertex 17 40.5 6
      vertex 13 44.5 6
    endloop
  endfacet
  facet normal -1.49966e-032 -1.22461e-016 1
    outer loop
      vertex 17 45.5 6
      vertex 17 49.5 6
      vertex 13 49.5 6
    endloop
  endfacet
  facet normal -1.49966e-032 -1.22461e-016 1
    outer loop
      vertex 13 45.5 6
      vertex 17 45.5 6
      vertex 13 49.5 6
    endloop
  endfacet
  facet normal -1.49966e-032 -1.22461e-016 1
    outer loop
      vertex 22 35.5 6
      vertex 22 39.5 6
      vertex 18 39.5 6
    endloop
  endfacet
  facet normal -1.49966e-032 -1.22461e-016 1
    outer loop
      vertex 18 35.5 6
      vertex 22 35.5 6
      vertex 18 39.5 6
    endloop
  endfacet
  facet normal -1.49966e-032 -1.22461e-016 1
    outer loop
      vertex 22 45.5 6
      vertex 22 49.5 6
      vertex 18 49.5 6
    endloop
  endfacet
  facet normal -1.49966e-032 -1.22461e-016 1
    outer loop
      vertex 18 45.5 6
      vertex 22 45.5 6
      vertex 18 49.5 6
    endloop
  endfacet
  facet normal -1.49966e-032 -1.22461e-016 1
    outer loop
      vertex 27 25.5 6
      vertex 27 29.5 6
      vertex 23 29.5 6
    endloop
  endfacet
  facet normal -1.49966e-032 -1.22461e-016 1
    outer loop
      vertex 23 25.5 6
      vertex 27 25.5 6
      vertex 23 29.5 6
    endloop
  endfacet
  facet normal -1.49966e-032 -1.22461e-016 1
    outer loop
      vertex 27 30.5 6
      vertex 27 34.5 6
      vertex 23 34.5 6
    endloop
  endfacet
  facet normal -1.49966e-032 -1.22461e-016 1
    outer loop
      vertex 23 30.5 6
      vertex 27 30.5 6
      vertex 23 34.5 6
    endloop
  endfacet
  facet normal -1.49966e-032 -1.22461e-016 1
    outer loop
      vertex 27 35.5 6
      vertex 27 39.5 6
      vertex 23 39.5 6
    endloop
  endfacet
  facet normal -1.49966e-032 -1.22461e-016 1
    outer loop
      vertex 23 35.5 6
      vertex 27 35.5 6
      vertex 23 39.5 6
    endloop
  endfacet
  facet normal -1.49966e-032 -1.22461e-016 1
    outer loop
      vertex 27 40.5 6
      vertex 27 44.5 6
      vertex 23 44.5 6
    endloop
  endfacet
  facet normal -1.49966e-032 -1.22461e-016 1
    outer loop
      vertex 23 40.5 6
      vertex 27 40.5 6
      vertex 23 44.5 6
    endloop
  endfacet
  facet normal -1.49966e-032 -1.22461e-016 1
    outer loop
      vertex 27 45.5 6
      vertex 27 49.5 6
      vertex 23 49.5 6
    endloop
  endfacet
  facet normal -1.49966e-032 -1.22461e-016 1
    outer loop
      vertex 23 45.5 6
      vertex 27 45.5 6
      vertex 23 49.5 6
    endloop
  endfacet
endsolid OpenSCAD_Model
